# Blender 3.4.1
# www.blender.org
mtllib SM_SmallRock_04.mtl
o Rock_04_Mesh.001
v 0.055991 -0.061213 0.168225
v -0.116226 0.179074 0.052528
v -0.105002 0.167216 -0.195312
v -0.010902 0.200609 -0.042727
v -0.123067 -0.047240 -0.015285
v 0.011113 0.145980 0.154579
v 0.051926 -0.053092 -0.152296
v -0.177097 0.107745 -0.097480
v 0.063606 0.047031 0.183885
v -0.142376 0.058998 0.081543
v 0.157213 -0.053056 0.119427
v 0.150280 0.152029 -0.064847
v 0.115403 0.135087 -0.136023
v 0.177823 0.064359 0.102910
v -0.169765 -0.005341 -0.041784
v 0.178254 -0.048078 0.029805
v 0.172880 0.105656 -0.030988
v -0.064483 0.180599 -0.196418
v 0.160709 0.036584 -0.092015
v 0.123753 -0.052053 -0.115723
v 0.173388 0.153872 0.091662
v -0.094929 0.025583 -0.201285
v -0.014634 -0.040140 -0.180732
v 0.109786 0.160768 0.154078
v -0.122682 -0.032308 -0.154059
v 0.019780 0.180935 0.041030
v -0.159452 0.134424 0.041155
v -0.177472 0.185706 -0.089169
v -0.137083 -0.030613 0.068955
vn -0.5510 0.0270 0.8341
vn -0.2634 0.0042 0.9647
vn -0.3998 0.2989 0.8665
vn -0.0462 -0.9805 0.1908
vn -0.2089 -0.9778 -0.0158
vn 0.0313 -0.9777 -0.2075
vn -0.2140 0.9449 0.2478
vn -0.0178 0.9980 0.0601
vn -0.4003 0.9164 -0.0031
vn -0.0003 -0.9591 -0.2829
vn -0.3549 -0.8824 -0.3090
vn 0.0148 -0.7787 -0.6272
vn -0.5546 -0.0640 0.8297
vn -0.6278 -0.3013 0.7177
vn -0.2659 -0.0879 0.9600
vn -0.3718 0.9216 -0.1111
vn 0.0108 0.9990 -0.0428
vn 0.0423 0.8939 -0.4462
vn 0.4760 0.0569 -0.8776
vn 0.2934 -0.5695 -0.7679
vn 0.2679 -0.2187 -0.9383
vn 0.1864 0.3949 0.8996
vn -0.1853 0.4164 0.8901
vn -0.0549 0.1238 0.9908
vn -0.8503 -0.0353 0.5252
vn -0.9425 0.0360 0.3323
vn -0.8868 -0.2666 0.3774
vn -0.6030 0.1625 0.7810
vn -0.4404 0.4273 0.7896
vn -0.7448 0.2382 0.6233
vn 0.0117 -0.9831 0.1829
vn 0.4940 -0.8675 -0.0587
vn 0.4413 -0.8093 0.3876
vn 0.9287 -0.3620 0.0802
vn 0.9385 -0.0657 0.3390
vn 0.8501 -0.2431 0.4672
vn 0.7869 0.4880 -0.3777
vn 0.8848 0.0930 -0.4567
vn 0.7303 0.1802 -0.6589
vn 0.4929 0.8109 -0.3153
vn 0.4981 0.5664 -0.6566
vn 0.2466 0.7889 -0.5629
vn 0.1694 0.9809 -0.0952
vn 0.4524 0.8602 -0.2355
vn 0.2055 0.8474 -0.4896
vn -0.6099 -0.0918 -0.7872
vn -0.8813 -0.0426 -0.4706
vn -0.7057 0.1292 -0.6966
vn -0.6110 -0.7500 -0.2532
vn -0.5064 -0.8611 -0.0460
vn -0.8006 -0.5976 -0.0424
vn -0.9381 0.0385 0.3443
vn -0.9596 -0.2465 0.1357
vn -0.8825 -0.2637 0.3895
vn -0.0264 0.9748 0.2214
vn -0.2475 0.7919 0.5583
vn 0.1406 0.7996 0.5838
vn 0.6210 -0.1713 0.7648
vn 0.4954 0.2520 0.8313
vn 0.2573 -0.0169 0.9662
vn 0.9600 -0.2725 -0.0647
vn 0.9543 0.2979 0.0243
vn 0.9787 0.0263 0.2037
vn 0.8083 0.0667 0.5850
vn 0.8293 0.3520 0.4340
vn 0.5655 0.3190 0.7606
vn 0.0503 0.9726 0.2269
vn -0.1489 0.9255 0.3482
vn -0.1683 0.8033 0.5713
vn -0.9577 0.0812 0.2759
vn -0.9944 -0.0283 -0.1013
vn -0.9768 -0.2040 0.0656
vn 0.9486 0.1522 -0.2774
vn 0.9084 0.0841 -0.4097
vn 0.8135 0.4795 -0.3291
vn 0.9840 0.0513 -0.1705
vn 0.9443 -0.3072 -0.1183
vn 0.9521 -0.0166 -0.3052
vn -0.4866 0.8409 -0.2369
vn -0.0861 0.8181 -0.5686
vn -0.4814 0.6328 -0.6065
vn -0.3309 0.1707 -0.9281
vn 0.0520 0.3830 -0.9223
vn -0.2147 -0.0544 -0.9752
vn 0.5608 0.8271 0.0364
vn 0.4233 0.8936 -0.1493
vn 0.1379 0.9886 0.0596
vn -0.9342 -0.1383 -0.3287
vn -0.7781 -0.4911 -0.3916
vn -0.9341 -0.3153 -0.1677
vn 0.9556 0.2911 0.0468
vn 0.9594 -0.2790 -0.0419
vn 0.9920 0.0809 -0.0967
vn -0.2764 -0.0594 0.9592
vn -0.6400 -0.2729 0.7183
vn -0.2960 -0.5931 0.7487
vn 0.2453 0.3657 -0.8978
vn 0.4440 0.0847 -0.8920
vn 0.2352 -0.1911 -0.9530
vn 0.4684 -0.8833 -0.0210
vn 0.0587 -0.9816 -0.1817
vn 0.3743 -0.8571 -0.3541
vn -0.6203 -0.1186 -0.7754
vn -0.7347 -0.4241 -0.5295
vn -0.8875 -0.0683 -0.4557
vn -0.3170 -0.3528 -0.8804
vn -0.0501 -0.4715 -0.8805
vn -0.4171 -0.6518 -0.6334
vn 0.9570 0.2420 -0.1600
vn 0.8032 0.5608 -0.2010
vn 0.8949 0.4459 -0.0179
vn 0.5981 0.0537 -0.7996
vn 0.7823 -0.0301 -0.6221
vn 0.6467 -0.2603 -0.7169
vn 0.2333 -0.6252 0.7448
vn 0.5588 -0.2465 0.7918
vn 0.1899 -0.0938 0.9773
vn 0.5015 -0.8637 -0.0502
vn 0.0204 -0.9815 0.1903
vn 0.0973 -0.9734 -0.2076
vn 0.5101 0.0436 -0.8590
vn 0.5607 -0.2730 -0.7817
vn 0.3319 -0.5812 -0.7431
vn 0.9092 -0.1467 -0.3896
vn 0.8795 -0.4316 -0.2004
vn 0.7852 -0.3790 -0.4897
vn -0.5282 -0.8490 0.0131
vn -0.7472 -0.6054 0.2743
vn -0.8155 -0.5785 0.0174
vn -0.5418 -0.7622 0.3544
vn -0.2967 -0.9522 0.0728
vn -0.1356 -0.9510 0.2779
vn 0.6441 -0.1632 0.7474
vn 0.7685 0.0073 0.6398
vn 0.5193 0.2601 0.8140
vn 0.3094 0.8310 0.4623
vn 0.5471 0.8327 0.0858
vn 0.1229 0.9869 0.1044
vn -0.8120 0.4499 -0.3719
vn -0.7159 0.1735 -0.6763
vn -0.8921 0.0019 -0.4518
vn -0.9579 0.0727 0.2777
vn -0.9118 0.4103 0.0155
vn -0.9943 -0.0368 -0.0998
vn 0.2009 0.3554 -0.9129
vn 0.1915 -0.2007 -0.9607
vn -0.0764 -0.0852 -0.9934
vn -0.2404 -0.9690 -0.0571
vn -0.3579 -0.8927 -0.2738
vn -0.0013 -0.9687 -0.2484
vn -0.1524 0.9371 0.3142
vn 0.0472 0.9802 0.1923
vn 0.0431 0.9911 0.1258
vn 0.1918 0.9791 0.0684
vn 0.1958 0.9712 0.1357
vn 0.4819 0.8734 -0.0705
vn -0.7435 0.2519 0.6195
vn -0.4378 0.4397 0.7842
vn -0.4514 0.6372 0.6247
vn -0.5276 0.7616 0.3763
vn -0.7019 0.7018 0.1218
vn -0.8310 0.3971 0.3895
vt 0.883299 0.564583
vt 0.342721 0.954568
vt 0.721018 0.865017
vt 0.966461 0.642332
vt 0.649687 0.811354
vt 0.968120 0.347725
vt 0.970191 0.742978
vt 0.671518 0.871560
vt 0.372447 0.870168
vt 0.721018 0.923925
vt 0.957305 0.583479
vt 0.891090 0.404789
vt 0.443102 0.902086
vt 0.945344 0.701489
vt 0.921472 0.563498
vt 0.923862 0.640061
vt 0.374359 0.978716
vt 0.886843 0.523054
vt 0.961807 0.456741
vt 0.628202 0.911668
vt 0.614358 0.886820
vt 0.956487 0.427797
vt 0.928844 0.515582
vt 0.902837 0.685939
vt 0.370770 0.846661
vt 0.406015 0.971060
vt 0.889677 0.488584
vt 0.944222 0.469855
vt 0.640652 0.823590
vt 0.972666 0.361863
vt 0.921722 0.448143
vt 0.443102 0.930562
vt 0.891126 0.432834
vt 0.960770 0.513004
vt 0.665747 0.952998
vt 0.918464 0.750448
vt 0.918779 0.350914
vt 0.441064 0.876046
vt 0.895773 0.379639
vt 0.962883 0.546427
vt 0.697050 0.949696
vt 0.896087 0.731385
vt 0.892911 0.340929
vt 0.414715 0.846442
vt 0.687001 0.899207
vt 0.948905 0.654509
vt 0.695701 0.816210
vt 0.972666 0.695710
vt 0.891664 0.643658
vt 0.343271 0.877332
s 0
usemtl smallrocks.003
f 10/16/1 9/15/2 6/11/3
f 1/2/4 5/9/5 7/13/6
f 2/3/7 4/8/8 28/47/9
f 7/13/10 25/44/11 23/38/12
f 10/16/13 29/49/14 9/15/15
f 28/47/16 4/8/17 18/29/18
f 13/22/19 7/12/20 23/39/21
f 24/40/22 6/11/23 9/15/24
f 10/16/25 27/46/26 29/49/27
f 10/16/28 6/11/29 27/46/30
f 1/2/31 16/26/32 11/17/33
f 16/27/34 14/23/35 11/18/36
f 12/19/37 19/31/38 13/22/39
f 12/20/40 13/21/41 18/29/42
f 4/8/43 12/20/44 18/29/45
f 22/36/46 8/14/47 3/7/48
f 25/44/49 5/9/50 15/25/51
f 27/46/52 15/24/53 29/49/54
f 26/45/55 6/10/56 24/41/57
f 11/18/58 24/40/59 9/15/60
f 16/27/61 21/34/62 14/23/63
f 14/23/64 21/34/65 24/40/66
f 26/45/67 2/3/68 6/10/69
f 27/46/70 8/14/71 15/24/72
f 17/28/73 19/31/74 12/19/75
f 17/28/76 16/27/77 19/31/78
f 28/47/79 18/29/80 3/5/81
f 3/6/82 18/30/83 22/37/84
f 21/35/85 12/20/86 26/45/87
f 8/14/88 25/42/89 15/24/90
f 21/34/91 16/27/92 17/28/93
f 9/15/94 29/49/95 1/1/96
f 18/30/97 13/22/98 23/39/99
f 16/26/100 7/13/101 20/32/102
f 22/36/103 25/42/104 8/14/105
f 22/37/106 23/39/107 25/43/108
f 17/28/109 12/19/110 21/34/111
f 13/22/112 19/31/113 20/33/114
f 1/1/115 11/18/116 9/15/117
f 16/26/118 1/2/119 7/13/120
f 13/22/121 20/33/122 7/12/123
f 19/31/124 16/27/125 20/33/126
f 5/9/127 29/50/128 15/25/129
f 29/50/130 5/9/131 1/2/132
f 11/18/133 14/23/134 24/40/135
f 24/41/136 21/35/137 26/45/138
f 28/48/139 3/7/140 8/14/141
f 27/46/142 28/48/143 8/14/144
f 18/30/145 23/39/146 22/37/147
f 5/9/148 25/44/149 7/13/150
f 2/3/151 26/45/152 4/8/153
f 4/8/154 26/45/155 12/20/156
f 27/46/157 6/11/158 2/4/159
f 2/4/160 28/48/161 27/46/162
