# Blender 3.4.1
# www.blender.org
mtllib SM_SmallRock_02.mtl
o Rock_02_Mesh.003
v -0.102051 0.065369 -0.407033
v 0.134503 0.299238 0.244036
v -0.171121 -0.053075 -0.100306
v 0.035925 -0.049043 -0.344868
v 0.300869 0.258892 0.033209
v 0.044840 0.048916 -0.347365
v 0.032895 -0.068007 0.325459
v -0.018852 0.345502 -0.178152
v -0.086475 -0.069057 0.160713
v -0.205929 -0.047015 -0.211829
v 0.072978 -0.057474 0.105679
v -0.298947 0.341809 0.046334
v -0.299738 -0.027208 0.178855
v 0.236767 -0.041904 -0.132488
v 0.324449 -0.064059 0.096735
v -0.295395 0.007236 -0.215379
v -0.285348 0.338237 -0.162973
v 0.169805 0.225331 -0.246913
v 0.277623 -0.022196 -0.135030
v -0.084284 0.338352 -0.388986
v -0.239818 0.343500 -0.269586
v 0.298198 0.177368 -0.080676
v -0.043489 0.183400 0.387014
v -0.111924 0.293731 0.305017
v -0.245791 0.014223 -0.290447
v -0.289820 0.168283 -0.242748
v -0.288141 0.209748 0.171209
v -0.131508 0.229913 0.326614
v 0.182883 0.337110 -0.092320
v -0.301781 -0.035910 -0.091715
v 0.249075 0.315631 0.042646
v 0.311818 0.149243 0.115108
v -0.108624 0.243759 -0.405785
v 0.107313 0.070730 0.283672
v -0.173652 -0.066123 0.281249
v -0.045019 -0.010862 0.382902
v 0.084013 0.335831 -0.310148
v -0.000417 0.315861 0.268459
vn 0.0190 -0.9983 -0.0546
vn -0.0083 -0.9991 -0.0421
vn 0.0969 -0.9905 -0.0981
vn 0.2489 0.9685 -0.0082
vn 0.0959 0.9645 0.2459
vn 0.2809 0.9519 0.1227
vn -0.0363 -0.9986 -0.0396
vn -0.1640 -0.9743 -0.1542
vn 0.0625 -0.9443 -0.3230
vn -0.5116 -0.8584 -0.0366
vn -0.2132 -0.9672 -0.1379
vn -0.0857 -0.9960 -0.0240
vn 0.7168 -0.2191 -0.6620
vn 0.4542 -0.4956 -0.7404
vn 0.5868 -0.0418 -0.8086
vn 0.4412 -0.0309 -0.8969
vn 0.2889 -0.4773 -0.8299
vn 0.1655 -0.1439 -0.9757
vn -0.0677 -0.7725 -0.6313
vn -0.4467 -0.5824 -0.6792
vn -0.1743 -0.4848 -0.8571
vn 0.0190 0.0588 -0.9981
vn 0.4450 0.0081 -0.8955
vn 0.1705 -0.1046 -0.9798
vn 0.1514 -0.9633 0.2217
vn 0.0314 -0.9989 -0.0350
vn 0.0371 -0.9981 -0.0485
vn -0.1375 -0.9799 0.1442
vn -0.0047 -0.9999 -0.0089
vn 0.1136 -0.9620 0.2483
vn 0.7492 -0.3945 0.5320
vn 0.6086 -0.0531 0.7917
vn 0.4755 -0.5333 0.6997
vn -0.9652 0.1358 0.2233
vn -0.9583 -0.2844 -0.0256
vn -0.9500 -0.0849 0.3005
vn 0.0993 -0.9926 -0.0700
vn -0.0061 -0.9999 -0.0139
vn 0.0947 -0.9499 -0.2977
vn -0.8502 0.5146 -0.1109
vn -0.9719 0.0568 -0.2283
vn -0.8926 0.4486 0.0457
vn 0.2256 0.9710 -0.0790
vn 0.2541 0.9370 -0.2398
vn 0.0293 0.9992 -0.0283
vn -0.3252 0.9400 0.1034
vn 0.2105 0.9767 -0.0410
vn 0.0133 0.9999 0.0094
vn 0.0617 0.9714 0.2293
vn 0.2150 0.9763 -0.0257
vn -0.3208 0.9396 0.1195
vn -0.8056 0.1384 0.5761
vn -0.7628 -0.0772 0.6420
vn -0.6586 0.1132 0.7439
vn -0.6179 0.0639 0.7837
vn -0.7210 -0.1272 0.6811
vn -0.4121 -0.1180 0.9035
vn -0.0392 -0.9987 -0.0339
vn -0.1725 -0.9778 0.1188
vn -0.0608 -0.9975 -0.0348
vn 0.8698 0.1562 -0.4681
vn 0.7957 -0.1398 -0.5893
vn 0.7664 0.0870 -0.6364
vn 0.7696 -0.3609 0.5268
vn 0.7876 0.0543 0.6138
vn 0.6217 -0.0199 0.7830
vn 0.8959 -0.2056 -0.3939
vn 0.9583 0.0930 -0.2703
vn 0.9323 -0.3616 -0.0082
vn 0.4076 -0.9112 0.0591
vn -0.0073 -0.9973 -0.0726
vn 0.0706 -0.9907 -0.1164
vn -0.3821 -0.8655 -0.3240
vn -0.6506 -0.6532 -0.3873
vn -0.5453 -0.6375 -0.5443
vn -0.8812 -0.0053 -0.4726
vn -0.7303 -0.2609 -0.6313
vn -0.8354 -0.2772 -0.4746
vn 0.7005 0.0237 -0.7132
vn 0.7217 -0.2033 -0.6616
vn 0.5902 -0.0258 -0.8069
vn -0.4916 0.0363 -0.8701
vn -0.3558 -0.1271 -0.9259
vn -0.6240 -0.2356 -0.7451
vn -0.3501 0.9342 0.0690
vn -0.0122 0.9997 -0.0224
vn -0.2766 0.9579 -0.0772
vn -0.6580 0.4033 -0.6359
vn -0.5251 0.0889 -0.8464
vn -0.8213 0.0715 -0.5660
vn 0.6056 -0.6389 -0.4744
vn 0.2840 -0.9265 -0.2469
vn 0.2755 -0.8421 -0.4636
vn 0.6210 -0.6582 -0.4257
vn 0.6112 -0.7910 -0.0269
vn 0.2923 -0.9361 -0.1958
vn 0.2695 0.2757 -0.9227
vn 0.4758 0.4745 -0.7405
vn 0.4675 0.0276 -0.8836
vn -0.2932 0.9171 -0.2701
vn 0.2383 0.9429 -0.2327
vn 0.0682 0.8536 -0.5164
vn -0.2485 0.9680 -0.0354
vn 0.2455 0.9499 -0.1937
vn -0.2918 0.9282 -0.2309
vn -0.7702 0.5747 -0.2766
vn -0.7664 0.4600 -0.4484
vn -0.9154 0.1280 -0.3816
vn 0.6025 0.7511 -0.2699
vn 0.8339 0.5247 -0.1712
vn 0.8502 0.3798 -0.3646
vn 0.9762 0.1023 0.1912
vn 0.9496 -0.3054 0.0706
vn 0.9691 0.1484 -0.1970
vn -0.2504 0.8375 0.4857
vn -0.0081 0.9476 0.3193
vn -0.3852 0.8984 0.2112
vn 0.7767 0.1003 0.6219
vn 0.6107 0.2948 0.7349
vn 0.6111 0.0250 0.7911
vn 0.3452 0.1598 0.9248
vn 0.2052 -0.1130 0.9722
vn 0.5776 -0.0169 0.8162
vn 0.5997 0.0278 0.7997
vn 0.5988 0.2976 0.7435
vn 0.3679 0.2063 0.9067
vn -0.2879 -0.8783 -0.3817
vn -0.4516 -0.6542 -0.6067
vn -0.0658 -0.8336 -0.5485
vn -0.9749 0.0403 -0.2188
vn -0.9537 -0.2961 -0.0530
vn -0.8994 0.4334 0.0568
vn -0.8179 0.0458 -0.5736
vn -0.5197 0.0631 -0.8520
vn -0.6537 -0.2102 -0.7270
vn -0.9753 0.0418 -0.2168
vn -0.9472 -0.2357 -0.2174
vn -0.9542 -0.2947 -0.0508
vn -0.6692 0.6436 0.3715
vn -0.7844 0.3560 0.5079
vn -0.5257 0.5708 0.6307
vn -0.9031 0.4123 0.1203
vn -0.9485 -0.3166 0.0072
vn -0.9618 0.1013 0.2545
vn 0.8557 0.3851 -0.3457
vn 0.6159 0.6786 -0.4001
vn 0.6066 0.7547 -0.2498
vn -0.2783 0.9532 -0.1180
vn -0.0143 0.9980 -0.0622
vn 0.2092 0.9381 -0.2761
vn -0.1341 0.3740 0.9177
vn -0.3736 0.5243 0.7652
vn -0.4935 0.2868 0.8211
vn -0.5290 0.5366 0.6574
vn -0.7845 0.3194 0.5316
vn -0.6438 0.2945 0.7062
vn -0.6596 -0.6650 -0.3503
vn -0.3896 -0.8751 -0.2869
vn -0.6653 -0.7226 -0.1877
vn -0.5121 -0.8576 -0.0484
vn -0.0863 -0.9957 -0.0349
vn -0.1980 -0.9730 0.1184
vn 0.9583 0.2857 -0.0025
vn 0.9769 0.0968 0.1905
vn 0.9697 0.1430 -0.1979
vn 0.8250 0.4875 0.2860
vn 0.6587 0.4827 0.5772
vn 0.8305 0.2952 0.4724
vn -0.5855 0.4958 -0.6413
vn -0.2577 0.4048 -0.8773
vn -0.4675 0.1898 -0.8634
vn 0.0390 0.0777 -0.9962
vn 0.2647 0.2732 -0.9248
vn 0.4629 0.0252 -0.8860
vn 0.1065 -0.9708 0.2150
vn -0.0068 -0.9984 -0.0565
vn 0.4071 -0.9101 0.0769
vn 0.0303 -0.9972 -0.0680
vn 0.0246 -0.9982 -0.0546
vn 0.0030 -0.9985 -0.0555
vn 0.7988 0.5446 0.2556
vn 0.5947 0.7469 0.2974
vn 0.6369 0.5414 0.5489
vn 0.5933 0.8032 -0.0527
vn 0.7951 0.5996 -0.0906
vn 0.5552 0.8112 -0.1835
vn -0.2508 0.1705 0.9529
vn -0.5908 0.0780 0.8031
vn -0.3824 -0.1027 0.9183
vn 0.1094 0.8034 0.5853
vn -0.1291 0.6608 0.7394
vn 0.1164 0.4918 0.8629
vn -0.7247 -0.0949 0.6825
vn -0.5382 -0.5509 0.6379
vn -0.4150 -0.0850 0.9058
vn -0.6518 -0.6742 0.3471
vn -0.5926 -0.8054 -0.0112
vn -0.2908 -0.9447 0.1517
vn 0.5835 -0.0338 0.8114
vn 0.2119 -0.1313 0.9684
vn 0.4514 -0.5158 0.7281
vn 0.0489 -0.8386 0.5426
vn -0.1656 -0.5211 0.8373
vn -0.2006 -0.8741 0.4424
vn 0.6421 0.5831 -0.4976
vn 0.8609 0.2751 -0.4279
vn 0.7692 0.2079 -0.6043
vn 0.5787 0.4523 -0.6786
vn 0.6729 0.0571 -0.7375
vn 0.5604 0.0077 -0.8282
vn 0.1570 0.7926 0.5891
vn 0.1627 0.4775 0.8635
vn 0.3972 0.5724 0.7174
vn 0.3896 0.8084 0.4413
vn 0.3052 0.9403 0.1505
vn 0.1211 0.9543 0.2732
vt 0.312582 0.000000
vt 0.306474 0.586484
vt 0.309674 0.261428
vt 0.471808 0.646938
vt 0.230652 0.773896
vt 0.264180 0.028756
vt 0.213967 0.685306
vt 0.259478 0.618130
vt 0.298217 0.186902
vt 0.290371 0.041387
vt 0.200091 0.295833
vt 0.359790 0.805011
vt 0.482958 0.773610
vt 0.302712 0.801802
vt 0.200091 0.761689
vt 0.253455 0.538013
vt 0.318951 0.757151
vt 0.384864 0.749887
vt 0.340105 0.421357
vt 0.229680 0.417208
vt 0.267657 0.852578
vt 0.295986 0.679017
vt 0.206760 0.185737
vt 0.361795 0.700796
vt 0.275147 0.518940
vt 0.356379 0.478476
vt 0.413344 0.801646
vt 0.319465 0.103747
vt 0.236180 0.120065
vt 0.302680 0.668130
vt 0.491524 0.835215
vt 0.384864 0.565092
vt 0.384864 0.038056
vt 0.437652 0.823412
vt 0.367847 0.509980
vt 0.284995 0.152901
vt 0.269431 0.318669
vt 0.400949 0.660522
vt 0.305077 0.337924
vt 0.283397 0.540118
vt 0.316902 0.511722
vt 0.293478 0.401761
vt 0.285644 0.343293
vt 0.524139 0.727663
vt 0.340610 0.156758
vt 0.250731 0.492154
vt 0.209010 0.804079
vt 0.317183 0.194478
vt 0.524943 0.684958
vt 0.265807 0.201059
vt 0.356508 0.571819
vt 0.362251 0.019083
vt 0.241014 0.271233
vt 0.210581 0.373719
vt 0.313451 0.842213
vt 0.217768 0.325046
vt 0.361795 0.836570
vt 0.524943 0.795039
vt 0.362381 0.088904
vt 0.315558 0.303157
vt 0.434392 0.657393
s 0
usemtl smallrocks.001
f 11/17/1 3/5/2 14/22/3
f 29/44/4 38/61/5 31/49/6
f 3/5/7 10/15/8 4/7/9
f 30/47/10 10/15/11 3/5/12
f 19/29/13 4/6/14 6/10/15
f 6/10/16 4/6/17 1/1/18
f 4/8/19 25/40/20 1/2/21
f 33/52/22 6/10/23 1/1/24
f 7/12/25 9/14/26 11/17/27
f 35/55/28 9/14/29 7/12/30
f 15/23/31 34/53/32 7/11/33
f 27/42/34 30/46/35 13/20/36
f 14/22/37 3/5/38 4/7/39
f 17/26/40 26/41/41 12/19/42
f 29/44/43 37/58/44 8/13/45
f 12/18/46 29/44/47 8/13/48
f 38/61/49 29/44/50 12/18/51
f 27/42/52 13/20/53 28/43/54
f 28/43/55 13/20/56 36/56/57
f 9/14/58 35/55/59 3/5/60
f 22/36/61 19/29/62 18/28/63
f 15/23/64 32/50/65 34/53/66
f 19/29/67 22/36/68 15/23/69
f 15/24/70 11/17/71 14/22/72
f 10/16/73 16/25/74 25/40/75
f 26/41/76 25/40/77 16/25/78
f 18/28/79 19/29/80 6/10/81
f 33/51/82 1/2/83 25/40/84
f 12/18/85 8/13/86 17/27/87
f 21/35/88 33/51/89 26/41/90
f 19/30/91 14/22/92 4/7/93
f 19/30/94 15/24/95 14/22/96
f 20/33/97 37/59/98 6/10/99
f 21/34/100 37/58/101 20/31/102
f 17/27/103 37/58/104 21/34/105
f 17/26/106 21/35/107 26/41/108
f 29/45/109 5/9/110 22/36/111
f 32/50/112 15/23/113 22/36/114
f 24/38/115 38/61/116 12/18/117
f 32/50/118 2/3/119 34/53/120
f 23/37/121 36/56/122 34/53/123
f 34/53/124 2/3/125 23/37/126
f 10/16/127 25/40/128 4/8/129
f 26/41/130 30/46/131 12/19/132
f 26/41/133 33/51/134 25/40/135
f 26/41/136 16/25/137 30/46/138
f 12/19/139 27/42/140 24/39/141
f 12/19/142 30/46/143 27/42/144
f 22/36/145 37/59/146 29/45/147
f 17/27/148 8/13/149 37/58/150
f 23/37/151 24/39/152 28/43/153
f 24/39/154 27/42/155 28/43/156
f 16/25/157 10/16/158 30/46/159
f 30/47/160 3/5/161 35/55/162
f 5/9/163 32/50/164 22/36/165
f 5/9/166 2/3/167 32/50/168
f 21/35/169 20/32/170 33/51/171
f 33/52/172 20/33/173 6/10/174
f 7/12/175 11/17/176 15/24/177
f 11/17/178 9/14/179 3/5/180
f 5/9/181 31/48/182 2/3/183
f 31/48/184 5/9/185 29/45/186
f 23/37/187 28/43/188 36/56/189
f 38/60/190 24/39/191 23/37/192
f 13/20/193 35/54/194 36/56/195
f 13/21/196 30/47/197 35/55/198
f 34/53/199 36/56/200 7/11/201
f 7/12/202 36/57/203 35/55/204
f 37/59/205 22/36/206 18/28/207
f 37/59/208 18/28/209 6/10/210
f 38/60/211 23/37/212 2/3/213
f 2/4/214 31/49/215 38/61/216
