# Blender 3.4.1
# www.blender.org
mtllib SM_SmallRock_03.mtl
o Rock_03_Mesh.002
v 0.188590 -0.053327 0.165245
v -0.269740 -0.035963 0.135427
v 0.130560 0.215173 0.167220
v 0.101669 0.182829 -0.182333
v -0.169329 0.224667 -0.213181
v -0.053052 0.060698 -0.214472
v 0.220683 0.151909 0.153342
v 0.075478 0.242935 -0.079608
v 0.109996 0.248199 0.082778
v 0.204443 -0.060442 -0.073614
v 0.185828 0.082119 0.183750
v -0.077805 0.233239 -0.217559
v 0.279135 0.071765 0.092411
v 0.088387 -0.048260 -0.185543
v -0.277511 0.222553 -0.070247
v -0.210059 -0.042808 -0.092026
v 0.224723 0.199568 0.031326
v -0.172836 0.165720 0.146427
v -0.270857 0.077307 0.122579
v 0.298274 0.088225 0.012539
v 0.015380 -0.048574 0.160506
v -0.282240 0.058307 -0.061747
v -0.160590 0.069967 -0.219467
v 0.267830 -0.057834 0.017064
v 0.029810 0.233468 -0.202348
v -0.145380 -0.017943 -0.179758
v 0.265478 0.157748 0.082940
v -0.070825 0.206508 0.154392
v -0.011383 -0.039832 -0.193105
v 0.013943 0.263291 -0.024387
v -0.083573 -0.058745 0.154317
v -0.125536 0.247589 0.007733
vn 0.2498 0.9679 0.0276
vn 0.4734 0.8745 -0.1060
vn 0.3663 0.9183 -0.1504
vn 0.1994 -0.4527 0.8691
vn 0.0762 -0.0680 0.9948
vn -0.0389 -0.5956 0.8023
vn 0.4385 0.8566 -0.2717
vn 0.5438 0.8079 -0.2270
vn 0.5727 0.6513 -0.4978
vn 0.4750 0.2470 -0.8446
vn 0.3067 -0.2213 -0.9257
vn 0.2994 0.3021 -0.9050
vn -0.0460 0.9952 -0.0868
vn -0.0462 0.8438 -0.5347
vn -0.2481 0.8890 -0.3848
vn -0.2316 0.3996 -0.8869
vn -0.0188 0.2905 -0.9567
vn -0.2256 -0.0637 -0.9721
vn 0.0605 -0.1397 -0.9883
vn -0.0080 -0.5434 -0.8394
vn -0.1853 -0.1837 -0.9654
vn 0.0315 0.2668 -0.9632
vn 0.0689 -0.0469 -0.9965
vn -0.1776 -0.0894 -0.9800
vn 0.6263 0.5231 0.5781
vn 0.6884 0.6324 0.3551
vn 0.4546 0.7194 0.5251
vn 0.7408 0.2470 0.6247
vn 0.8486 0.0709 0.5242
vn 0.8275 0.3719 0.4206
vn 0.4987 0.8324 -0.2416
vn 0.6307 0.6213 -0.4650
vn 0.4743 0.6918 -0.5445
vn 0.0987 0.9894 -0.1064
vn 0.2885 0.9419 -0.1719
vn 0.2652 0.8325 -0.4864
vn 0.1963 0.9798 0.0380
vn 0.3155 0.9385 -0.1404
vn 0.1263 0.9891 -0.0752
vn -0.1356 0.8386 0.5276
vn 0.0230 0.9722 0.2329
vn -0.1523 0.9496 0.2741
vn 0.8761 -0.3931 -0.2791
vn 0.6506 -0.5781 -0.4925
vn 0.8836 -0.0230 -0.4677
vn 0.1936 -0.9681 -0.1588
vn 0.4727 -0.8804 0.0375
vn 0.2134 -0.9153 0.3415
vn -0.7267 0.6570 0.2004
vn -0.7790 0.4141 0.4709
vn -0.5086 0.5180 0.6878
vn 0.1453 -0.8473 -0.5109
vn 0.1503 -0.9712 -0.1850
vn -0.0634 -0.9769 0.2039
vn -0.3087 -0.8865 -0.3447
vn -0.3477 -0.7560 -0.5546
vn -0.1157 -0.8639 -0.4902
vn -0.6077 -0.4466 -0.6567
vn -0.6075 -0.6293 -0.4846
vn -0.8272 -0.2773 -0.4886
vn 0.6838 0.2256 -0.6939
vn 0.8321 0.0568 -0.5518
vn 0.5345 -0.2391 -0.8107
vn -0.9283 0.3716 -0.0150
vn -0.9844 -0.0975 -0.1464
vn -0.9575 0.1255 0.2598
vn -0.4628 0.8820 -0.0890
vn -0.0600 0.9955 -0.0733
vn -0.2633 0.8904 -0.3712
vn -0.6420 0.3686 -0.6723
vn -0.6155 -0.0948 -0.7824
vn -0.8524 0.3568 -0.3822
vn 0.3366 0.4963 0.8002
vn 0.2498 0.1237 0.9604
vn 0.4902 0.2777 0.8262
vn 0.1465 0.4419 0.8850
vn -0.1222 0.4074 0.9050
vn 0.0578 0.0486 0.9971
vn 0.7077 0.6914 -0.1451
vn 0.8232 0.5653 0.0528
vn 0.8901 0.3622 -0.2766
vn 0.6666 0.6919 0.2772
vn 0.5603 0.8245 0.0786
vn 0.4322 0.7816 0.4498
vn 0.6124 -0.5075 -0.6061
vn 0.5331 -0.2338 -0.8131
vn 0.8304 0.0621 -0.5537
vn 0.4569 -0.0433 0.8885
vn 0.5795 -0.4138 0.7021
vn 0.7854 -0.0670 0.6154
vn -0.1374 0.3819 0.9139
vn -0.2169 0.2277 0.9493
vn 0.0444 0.0211 0.9988
vn -0.2731 0.7815 0.5609
vn -0.2892 0.9049 0.3124
vn -0.3693 0.6631 0.6511
vn -0.2217 0.2049 0.9533
vn -0.4560 -0.2436 0.8560
vn -0.0923 -0.4007 0.9115
vn -0.4823 -0.8187 0.3117
vn -0.2805 -0.9481 -0.1501
vn -0.1016 -0.9258 0.3640
vn -0.0300 -0.9429 -0.3317
vn -0.0446 -0.9400 0.3383
vn -0.2270 -0.9572 -0.1797
vn 0.2581 0.2944 -0.9202
vn 0.2651 -0.2307 -0.9362
vn 0.1391 -0.0513 -0.9890
vn 0.9957 -0.0285 -0.0880
vn 0.9278 -0.1238 0.3520
vn 0.9174 -0.3808 0.1158
vn 0.6656 0.6896 -0.2853
vn 0.8389 0.3519 -0.4152
vn 0.6708 0.5078 -0.5405
vn 0.8540 -0.4557 0.2513
vn 0.8542 -0.1940 0.4824
vn 0.6388 -0.5373 0.5507
vn 0.1802 -0.9705 -0.1601
vn 0.1996 -0.9184 0.3417
vn -0.0335 -0.9734 0.2268
vn 0.0135 0.9933 -0.1148
vn 0.1756 0.8480 -0.5001
vn 0.0198 0.8298 -0.5577
vn 0.0806 0.2739 -0.9584
vn 0.2337 0.3058 -0.9230
vn 0.1162 -0.0401 -0.9924
vn -0.9590 0.1079 0.2620
vn -0.9828 -0.1150 -0.1443
vn -0.9170 -0.2326 0.3240
vn -0.3294 0.2563 0.9087
vn -0.6413 0.1704 0.7481
vn -0.5646 -0.1785 0.8058
vn 0.6823 0.1339 0.7188
vn 0.4593 -0.0184 0.8881
vn 0.7875 -0.0429 0.6149
vn 0.8882 0.3650 0.2789
vn 0.9189 0.0663 0.3888
vn 0.9845 0.1685 -0.0489
vn -0.3537 0.6654 0.6573
vn -0.2746 0.9072 0.3188
vn -0.5725 0.8041 0.1600
vn 0.0389 -0.0030 0.9992
vn -0.2235 0.2041 0.9531
vn -0.0941 -0.4014 0.9111
vn 0.1986 -0.3128 -0.9288
vn 0.0084 -0.5384 -0.8426
vn 0.0756 -0.1335 -0.9882
vn -0.0616 -0.9770 0.2042
vn -0.0660 -0.9474 -0.3132
vn 0.1473 -0.8472 -0.5104
vn 0.4091 0.8038 0.4320
vn 0.5351 0.8427 0.0594
vn 0.3086 0.9313 0.1935
vn -0.1166 0.8193 0.5614
vn 0.1400 0.8453 0.5157
vn 0.0408 0.9617 0.2710
vn -0.1044 -0.6422 -0.7594
vn -0.3281 -0.5031 -0.7995
vn -0.2790 -0.3005 -0.9120
vn -0.5725 -0.2838 -0.7692
vn -0.6070 -0.4767 -0.6359
vn -0.8276 -0.3084 -0.4690
vn -0.6122 -0.0887 -0.7857
vn -0.8668 -0.1168 -0.4849
vn -0.8483 0.3628 -0.3858
vn -0.8826 -0.3807 -0.2758
vn -0.6480 -0.7179 -0.2546
vn -0.8339 -0.5196 0.1860
vn 0.0662 -0.0552 0.9963
vn -0.0633 -0.4484 0.8916
vn -0.0507 -0.5851 0.8094
vn 0.0319 -0.9466 -0.3208
vn 0.0344 -0.9796 0.1978
vn 0.0197 -0.9361 0.3512
vn -0.1686 0.9817 0.0889
vn -0.0609 0.9958 -0.0678
vn -0.4637 0.8821 -0.0831
vn 0.0399 0.9832 0.1783
vn -0.0298 0.9974 0.0657
vn -0.1355 0.9658 0.2211
vt 0.803044 0.434777
vt 0.794104 0.939605
vt 0.792725 0.802820
vt 0.828888 0.293545
vt 0.828888 0.732092
vt 0.727388 0.400848
vt 0.848069 0.170046
vt 0.728336 0.567744
vt 0.742161 0.170791
vt 0.731726 0.082446
vt 0.724571 0.650838
vt 0.767221 0.611350
vt 0.845772 0.202892
vt 0.741042 0.431994
vt 0.775065 0.154884
vt 0.821821 0.161967
vt 0.798324 0.518400
vt 0.865127 0.939036
vt 0.764155 0.423342
vt 0.731495 0.110529
vt 0.717993 0.623645
vt 0.760023 0.460259
vt 0.797742 0.566880
vt 0.895630 0.902033
vt 0.737238 0.702521
vt 0.775459 0.048095
vt 0.861284 0.815761
vt 0.808490 0.667032
vt 0.808631 0.196896
vt 0.846325 0.074889
vt 0.760149 0.310885
vt 0.848069 0.033824
vt 0.796348 0.741563
vt 0.793828 0.285047
vt 0.800118 0.235336
vt 0.751408 0.483118
vt 0.814072 0.382386
vt 0.791651 0.888256
vt 0.783096 0.691448
vt 0.766632 0.641095
vt 0.839693 0.959779
vt 0.796112 0.485291
vt 0.737421 0.143365
vt 0.714789 0.591138
vt 0.890092 0.832174
vt 0.793912 0.637890
vt 0.823470 0.213780
vt 0.734793 0.456624
vt 0.741451 0.339938
vt 0.846126 0.108948
vt 0.797003 0.597213
vt 0.895630 0.872254
vt 0.790463 0.135640
vt 0.823994 0.352995
vt 0.791119 0.858702
vt 0.799613 0.094404
s 0
usemtl smallrocks.002
f 9/16/1 17/29/2 8/15/3
f 1/1/4 11/19/5 21/37/6
f 8/15/7 17/29/8 4/9/9
f 4/8/10 14/23/11 25/44/12
f 30/53/13 12/20/14 5/10/15
f 5/11/16 12/21/17 23/40/18
f 6/12/19 29/51/20 23/40/21
f 12/21/22 6/12/23 23/40/24
f 7/13/25 27/47/26 3/7/27
f 7/14/28 13/22/29 27/48/30
f 8/15/31 4/9/32 25/43/33
f 30/53/34 8/15/35 25/43/36
f 9/16/37 8/15/38 30/53/39
f 28/50/40 9/16/41 32/56/42
f 24/42/43 10/17/44 20/36/45
f 10/18/46 24/41/47 1/2/48
f 15/26/49 19/32/50 18/30/51
f 14/24/52 10/18/53 21/38/54
f 16/27/55 26/45/56 29/52/57
f 26/46/58 16/28/59 22/39/60
f 4/8/61 20/36/62 14/23/63
f 15/25/64 22/39/65 19/33/66
f 15/26/67 30/53/68 5/10/69
f 5/11/70 23/40/71 15/25/72
f 3/6/73 11/19/74 7/14/75
f 3/6/76 28/49/77 11/19/78
f 17/29/79 27/47/80 20/35/81
f 27/47/82 17/29/83 3/7/84
f 10/17/85 14/23/86 20/36/87
f 11/19/88 1/1/89 13/22/90
f 28/49/91 18/31/92 11/19/93
f 28/50/94 32/56/95 18/30/96
f 18/31/97 2/4/98 31/54/99
f 2/3/100 16/27/101 31/55/102
f 29/52/103 31/55/104 16/27/105
f 25/44/106 14/23/107 6/12/108
f 20/36/109 13/22/110 24/42/111
f 17/29/112 20/35/113 4/9/114
f 24/42/115 13/22/116 1/1/117
f 10/18/118 1/2/119 21/38/120
f 30/53/121 25/43/122 12/20/123
f 12/21/124 25/44/125 6/12/126
f 19/33/127 22/39/128 2/5/129
f 18/31/130 19/34/131 2/4/132
f 7/14/133 11/19/134 13/22/135
f 27/48/136 13/22/137 20/36/138
f 18/30/139 32/56/140 15/26/141
f 11/19/142 18/31/143 31/54/144
f 14/23/145 29/51/146 6/12/147
f 21/38/148 29/52/149 14/24/150
f 3/7/151 17/29/152 9/16/153
f 28/50/154 3/7/155 9/16/156
f 29/51/157 26/46/158 23/40/159
f 23/40/160 26/46/161 22/39/162
f 23/40/163 22/39/164 15/25/165
f 22/39/166 16/28/167 2/5/168
f 11/19/169 31/54/170 21/37/171
f 29/52/172 21/38/173 31/55/174
f 32/56/175 30/53/176 15/26/177
f 9/16/178 30/53/179 32/56/180
