# Blender v2.93.4 OBJ File: 'decidit.blend'
# www.blender.org
mtllib SM_SmallRock_01.mtl
o Rock_01_Mesh.004
v 0.494538 0.018978 0.114528
v -0.214488 0.383881 -0.418595
v 0.190747 0.311321 0.359011
v 0.463341 0.386479 -0.097369
v -0.067568 -0.081907 0.341009
v -0.230034 -0.056094 -0.123093
v -0.352132 0.439621 0.209720
v -0.226158 0.200240 0.412138
v 0.235514 0.350535 -0.383453
v 0.410886 -0.086414 -0.162828
v -0.403999 -0.036793 0.114938
v 0.229397 0.452763 -0.014388
v -0.007256 0.461196 -0.024598
v -0.443450 0.372828 -0.088262
v 0.205122 -0.059069 -0.386644
v -0.131519 0.364232 0.411152
v 0.369536 0.387637 -0.291404
v 0.478980 0.140921 -0.147332
v -0.189845 0.465146 0.139582
v -0.048034 0.457374 -0.207766
v 0.462212 0.181149 0.149547
v -0.430928 0.028443 -0.239968
v 0.034314 0.407592 0.414248
v 0.022532 0.124265 -0.481606
v -0.222467 -0.065395 0.297041
v 0.308988 0.425263 -0.311656
v -0.316470 -0.005479 0.379926
v -0.315455 -0.041045 -0.330400
v 0.098255 0.188353 0.421824
v -0.412827 0.159559 -0.384068
v -0.367992 0.443674 -0.217293
v -0.423240 0.367492 -0.292620
v 0.243095 -0.077456 0.212960
v 0.432494 0.317908 -0.265289
v -0.374813 0.375787 0.293347
v -0.409858 -0.039595 -0.154727
v 0.081760 0.481700 -0.184618
v -0.232664 0.425274 -0.354114
v -0.073333 -0.037734 0.413900
v 0.033679 0.441986 0.218248
v -0.185271 -0.042822 -0.428030
v 0.121942 -0.027094 0.413367
v -0.168235 -0.064344 -0.364089
v -0.344611 0.101312 0.382342
v 0.392930 -0.080087 0.151477
v -0.405613 0.446184 -0.078303
v 0.469493 -0.062270 -0.085602
v 0.410689 0.410966 0.009584
v 0.296340 -0.067750 -0.328624
v -0.303562 0.401401 0.321016
v 0.093471 -0.058793 -0.298267
v 0.002077 0.340403 -0.464319
v -0.440416 0.126431 -0.042971
v 0.102469 0.411690 -0.423315
v -0.359445 0.004054 -0.379721
v 0.358000 0.232178 -0.318412
v -0.429981 -0.044216 -0.057114
v -0.419956 0.273413 -0.372708
v -0.230391 0.458806 0.263971
v 0.059747 -0.073424 0.392322
v -0.000937 0.012312 -0.475701
v -0.344170 0.369345 -0.393921
v 0.248842 -0.070341 0.312021
v -0.175047 0.443785 0.310144
v 0.464256 0.017754 -0.245726
v 0.496671 0.244116 0.108903
v 0.165045 -0.056113 -0.081294
v 0.092789 0.296980 -0.444634
v -0.023791 -0.056457 -0.106555
v 0.371055 0.362060 0.187913
v 0.023413 -0.040244 -0.434354
v 0.139505 0.416676 0.335771
v -0.131202 0.431853 -0.340250
v 0.124755 -0.088426 0.349134
v -0.364073 0.244393 0.324999
v 0.120263 0.398305 0.407700
v 0.076062 0.468192 -0.269550
v -0.280607 -0.062503 0.150292
v -0.191050 -0.040681 0.404263
v -0.182073 0.446786 -0.112804
v 0.338394 0.423296 0.112766
v -0.177705 0.072534 0.416067
v 0.324779 -0.079021 -0.003688
v -0.366171 -0.046445 0.194610
vt 0.526166 0.018052
vt 0.495806 0.046873
vt 0.440188 0.001070
vt 0.447031 0.482005
vt 0.486174 0.413813
vt 0.496817 0.516149
vt 0.066501 0.158981
vt 0.132297 0.118793
vt 0.167689 0.211245
vt 0.499664 0.251893
vt 0.538096 0.181686
vt 0.578107 0.232844
vt 0.062688 0.866105
vt 0.177313 0.834278
vt 0.108836 0.981690
vt 0.035595 0.658348
vt 0.028367 0.529165
vt 0.111170 0.539177
vt 0.139899 0.471712
vt 0.650076 0.203089
vt 0.612988 0.138446
vt 0.667135 0.118846
vt 0.042126 0.750626
vt 0.080446 0.665860
vt 0.097350 0.718822
vt 0.444284 0.259825
vt 0.456570 0.186273
vt 0.103751 0.827481
vt 0.140187 0.734302
vt 0.592092 0.388196
vt 0.655059 0.460133
vt 0.558149 0.533227
vt 0.409864 0.531129
vt 0.023185 0.412647
vt 0.105613 0.283069
vt 0.093634 0.427826
vt 0.192927 0.889404
vt 0.200091 0.962612
vt 0.164066 0.997215
vt 0.016316 0.067577
vt 0.070667 0.000000
vt 0.097161 0.086928
vt 0.128120 0.680438
vt 0.169052 0.589350
vt 0.637539 0.370352
vt 0.641909 0.408928
vt 0.435365 0.067509
vt 0.389755 0.201749
vt 0.518788 0.105197
vt 0.612631 0.055532
vt 0.584491 0.142001
vt 0.489833 0.306597
vt 0.580578 0.305370
vt 0.058864 0.434990
vt 0.026070 0.460755
vt 0.046586 0.257975
vt 0.017568 0.366979
vt 0.032028 0.290233
vt 0.398896 0.259236
vt 0.446941 0.306140
vt 0.028614 0.807872
vt 0.027661 0.205931
vt 0.000000 0.172984
vt 0.013271 0.151144
vt 0.625611 0.548102
vt 0.176623 0.104896
vt 0.166887 0.174018
vt 0.147034 0.006798
vt 0.162891 0.075156
vt 0.660275 0.236370
vt 0.685239 0.274795
vt 0.621341 0.286079
vt 0.685975 0.227521
vt 0.144406 0.290158
vt 0.162577 0.355749
vt 0.683033 0.567439
vt 0.644566 0.620489
vt 0.594144 0.624506
vt 0.032548 0.837297
vt 0.408834 0.160089
vt 0.527624 0.641090
vt 0.597522 0.647868
vt 0.532288 0.664585
vt 0.680969 0.382796
vt 0.686150 0.449163
vt 0.695255 0.536537
vt 0.037152 0.127403
vt 0.163569 0.684262
vt 0.144661 0.416112
vt 0.695671 0.601875
vt 0.660619 0.642201
vt 0.598457 0.359920
vt 0.554278 0.366203
vt 0.536555 0.348282
vt 0.588976 0.330635
vt 0.462918 0.330635
vt 0.654636 0.308488
vt 0.490317 0.379288
vt 0.588564 0.000000
vt 0.600946 0.032123
vt 0.464101 0.273276
vt 0.600528 0.183374
vt 0.468490 0.078751
vt 0.432111 0.426155
vt 0.200091 0.003698
vt 0.440962 0.592711
vt 0.027007 0.684400
vt 0.510529 0.591625
vt 0.469211 0.616437
vt 0.699142 0.150453
vt 0.167722 0.531210
vt 0.006522 0.252928
vt 0.532594 0.377524
vt 0.087568 1.000000
vt 0.046102 0.950720
vt 0.384864 0.171605
vt 0.178145 0.727445
vt 0.178691 0.767862
vt 0.174887 0.618815
vt 0.695671 0.477625
vn 0.7462 0.6521 -0.1338
vn 0.5532 0.8131 0.1815
vn 0.8808 0.2447 0.4053
vn -0.0814 -0.9966 -0.0115
vn -0.0017 -0.9999 -0.0135
vn -0.0613 -0.9978 -0.0247
vn 0.4874 -0.0108 -0.8731
vn 0.8180 -0.2265 -0.5287
vn 0.3263 -0.5378 -0.7774
vn -0.0738 0.9971 -0.0176
vn 0.0051 0.9984 0.0560
vn -0.0640 0.9970 -0.0444
vn 0.6145 0.0799 0.7849
vn 0.3242 -0.1834 0.9280
vn 0.6563 0.0172 0.7543
vn -0.8822 0.2989 0.3638
vn -0.9819 0.1886 0.0200
vn -0.9949 -0.0304 0.0960
vn -0.9671 -0.1961 -0.1623
vn -0.0757 0.9819 -0.1737
vn 0.0248 0.9679 -0.2501
vn 0.1338 0.6896 -0.7117
vn -0.2042 0.2178 0.9544
vn -0.6748 0.1556 0.7214
vn -0.2914 0.1336 0.9472
vn -0.0278 0.9455 0.3244
vn 0.0685 0.9898 0.1246
vn 0.1949 0.0155 0.9807
vn -0.0957 -0.0389 0.9946
vn -0.0657 -0.9867 0.1486
vn -0.0920 -0.9958 -0.0028
vn -0.0026 -0.9999 -0.0121
vn 0.2389 -0.9598 -0.1471
vn -0.4004 0.4888 -0.7751
vn 0.0379 0.0179 -0.9991
vn -0.5082 -0.0713 -0.8583
vn 0.4510 -0.6471 0.6147
vn 0.3062 -0.9365 0.1712
vn 0.9238 -0.2101 0.3201
vn 0.9884 0.0428 -0.1454
vn -0.6317 -0.0302 0.7746
vn -0.9314 -0.2726 0.2412
vn -0.1872 -0.6735 0.7151
vn -0.2199 -0.9574 0.1873
vn 0.6294 0.5807 0.5164
vn -0.0137 0.7501 0.6612
vn 0.1609 0.9864 0.0342
vn 0.3545 0.8492 -0.3914
vn -0.0127 0.9989 -0.0444
vn -0.3532 0.9179 0.1810
vn -0.6253 0.7804 0.0054
vn -0.8647 0.1365 -0.4834
vn -0.8663 0.4316 -0.2516
vn 0.3666 0.0532 -0.9289
vn -0.1584 0.5025 -0.8500
vn 0.0731 0.2288 -0.9707
vn -0.3381 0.6443 0.6860
vn 0.4570 0.1709 -0.8729
vn 0.6242 0.4841 -0.6132
vn -0.0498 -0.9986 -0.0161
vn 0.2066 -0.9220 -0.3275
vn 0.7605 -0.6470 -0.0551
vn -0.1288 0.9045 -0.4065
vn -0.2695 0.9375 -0.2202
vn 0.0088 -0.2936 -0.9559
vn -0.2100 -0.6714 -0.7107
vn -0.4453 -0.8807 -0.1614
vn -0.3194 -0.9077 -0.2723
vn -0.0579 -0.9914 -0.1171
vn 0.4432 0.4767 0.7592
vn 0.2336 0.9334 0.2726
vn 0.0348 -0.8061 -0.5908
vn -0.5536 -0.5375 0.6362
vn -0.4044 -0.8989 0.1684
vn -0.6236 -0.7817 -0.0041
vn 0.7784 0.1775 -0.6022
vn -0.6184 -0.5901 -0.5190
vn -0.0478 -0.4999 0.8648
vn 0.0909 -0.7647 0.6380
vn -0.0944 0.9648 0.2456
vn -0.1465 0.9884 -0.0405
vn 0.3093 0.9251 0.2202
vn -0.0125 -0.9999 0.0036
vn 0.1044 -0.9644 0.2430
usemtl smallrocks
s 1
f 4/1/1 48/2/2 66/3/3
f 83/4/4 33/5/5 67/6/6
f 56/7/7 65/8/8 15/9/9
f 19/10/10 13/11/11 80/12/12
f 3/13/13 42/14/14 21/15/15
f 35/16/16 14/17/17 53/18/18
f 53/18/18 14/17/17 22/19/19
f 73/20/20 77/21/21 54/22/22
f 16/23/23 75/24/24 8/25/25
f 64/26/26 40/27/27 13/11/11
f 29/28/28 16/23/23 82/29/29
f 5/30/30 78/31/31 69/32/32
f 10/33/33 83/4/4 67/6/6
f 62/34/34 24/35/35 30/36/36
f 63/37/37 45/38/38 1/39/39
f 4/40/1 66/41/3 18/42/40
f 44/43/41 75/24/24 11/44/42
f 5/30/30 79/45/43 25/46/44
f 66/3/3 48/2/2 70/47/45
f 23/48/46 40/27/27 64/26/26
f 12/49/47 26/50/48 37/51/49
f 77/21/21 26/50/48 54/22/22
f 7/52/50 80/12/12 46/53/51
f 58/54/52 32/55/53 62/34/34
f 15/9/9 68/56/54 56/7/7
f 2/57/55 52/58/56 24/35/35
f 16/59/23 23/48/46 50/60/57
f 23/61/46 16/23/23 29/28/28
f 9/62/58 26/63/48 17/64/59
f 69/32/32 78/31/31 6/65/60
f 10/66/33 49/67/61 65/8/8
f 65/8/8 1/68/39 47/69/62
f 19/10/10 80/12/12 7/52/50
f 23/48/46 64/26/26 50/60/57
f 38/70/63 62/71/34 31/72/64
f 2/73/55 38/70/63 54/22/22
f 1/39/39 21/15/15 63/37/37
f 18/42/40 66/41/3 1/68/39
f 61/74/65 41/75/66 30/36/36
f 36/76/67 28/77/68 43/78/69
f 76/79/70 23/61/46 29/28/28
f 72/80/71 40/27/27 23/48/46
f 24/35/35 68/56/54 15/9/9
f 71/81/72 41/82/66 61/83/65
f 25/46/44 27/84/73 84/85/74
f 78/31/31 57/86/75 6/65/60
f 12/49/47 4/1/1 26/50/48
f 34/87/76 4/40/1 18/42/40
f 44/43/41 11/44/42 27/88/73
f 16/23/23 8/25/25 82/29/29
f 41/75/66 55/89/77 30/36/36
f 36/76/67 22/90/19 55/91/77
f 21/15/15 42/14/14 63/37/37
f 39/92/78 60/93/79 42/94/14
f 22/19/19 30/36/36 55/89/77
f 58/54/52 22/19/19 32/55/53
f 14/95/17 35/96/16 46/53/51
f 32/55/53 22/19/19 14/17/17
f 14/95/17 46/53/51 32/97/53
f 62/71/34 32/97/53 31/72/64
f 33/5/5 5/30/30 67/6/6
f 42/94/14 60/93/79 63/98/37
f 34/99/76 17/100/59 4/1/1
f 34/87/76 9/62/58 17/64/59
f 7/52/50 46/53/51 35/96/16
f 50/60/57 59/101/80 7/52/50
f 84/85/74 57/86/75 78/31/31
f 53/18/18 11/44/42 35/16/16
f 13/11/11 12/49/47 37/51/49
f 13/11/11 37/51/49 20/102/81
f 20/102/81 37/51/49 73/20/20
f 31/72/64 80/12/12 73/20/20
f 44/43/41 27/88/73 82/29/29
f 25/46/44 79/45/43 27/84/73
f 81/103/82 40/27/27 72/80/71
f 40/27/27 12/49/47 13/11/11
f 43/78/69 41/82/66 71/81/72
f 43/78/69 28/77/68 41/82/66
f 29/28/28 82/29/29 42/14/14
f 3/13/13 29/28/28 42/14/14
f 43/78/69 69/32/32 6/65/60
f 6/65/60 36/76/67 43/78/69
f 82/29/29 8/25/25 44/43/41
f 75/24/24 44/43/41 8/25/25
f 45/104/38 33/5/5 83/4/4
f 47/69/62 1/68/39 45/105/38
f 46/53/51 31/72/64 32/97/53
f 46/53/51 80/12/12 31/72/64
f 10/66/33 65/8/8 47/69/62
f 47/69/62 45/105/38 10/66/33
f 12/49/47 48/2/2 4/1/1
f 40/27/27 81/103/82 12/49/47
f 10/33/33 67/6/6 49/106/61
f 49/67/61 15/9/9 65/8/8
f 16/23/23 50/107/57 75/24/24
f 50/60/57 7/52/50 35/96/16
f 49/106/61 51/108/83 15/109/9
f 43/78/69 15/109/9 51/108/83
f 2/73/55 54/22/22 52/110/56
f 52/58/56 68/56/54 24/35/35
f 53/18/18 22/19/19 57/111/75
f 53/18/18 57/111/75 11/44/42
f 52/58/56 54/112/22 68/56/54
f 54/112/22 26/63/48 9/62/58
f 41/82/66 28/77/68 55/91/77
f 28/77/68 36/76/67 55/91/77
f 34/87/76 65/8/8 56/7/7
f 34/87/76 56/7/7 9/62/58
f 60/93/79 74/113/84 63/98/37
f 69/32/32 43/78/69 51/108/83
f 58/54/52 62/34/34 30/36/36
f 58/54/52 30/36/36 22/19/19
f 64/26/26 13/11/11 59/101/80
f 64/26/26 59/101/80 50/60/57
f 30/36/36 24/35/35 61/74/65
f 24/35/35 15/9/9 61/74/65
f 38/70/63 2/73/55 62/71/34
f 62/34/34 2/57/55 24/35/35
f 63/98/37 33/5/5 45/104/38
f 74/113/84 33/5/5 63/98/37
f 7/52/50 59/101/80 19/10/10
f 19/10/10 59/101/80 13/11/11
f 34/87/76 18/42/40 65/8/8
f 18/42/40 1/68/39 65/8/8
f 66/114/3 21/15/15 1/39/39
f 21/15/15 66/114/3 3/13/13
f 67/6/6 69/32/32 51/108/83
f 83/4/4 10/33/33 45/104/38
f 9/62/58 68/56/54 54/112/22
f 68/56/54 9/62/58 56/7/7
f 36/76/67 57/86/75 22/90/19
f 60/93/79 5/30/30 74/113/84
f 72/80/71 70/47/45 81/103/82
f 66/114/3 70/115/45 3/13/13
f 61/83/65 15/109/9 71/81/72
f 43/78/69 71/81/72 15/109/9
f 6/65/60 57/86/75 36/76/67
f 67/6/6 5/30/30 69/32/32
f 70/47/45 72/80/71 76/116/70
f 72/80/71 23/48/46 76/116/70
f 38/70/63 73/20/20 54/22/22
f 31/72/64 73/20/20 38/70/63
f 74/113/84 5/30/30 33/5/5
f 5/30/30 60/93/79 39/92/78
f 50/107/57 35/16/16 75/24/24
f 75/24/24 35/16/16 11/44/42
f 3/13/13 70/115/45 76/79/70
f 29/28/28 3/13/13 76/79/70
f 37/51/49 77/21/21 73/20/20
f 37/51/49 26/50/48 77/21/21
f 25/46/44 78/31/31 5/30/30
f 25/46/44 84/85/74 78/31/31
f 82/29/29 27/88/73 79/117/43
f 39/92/78 79/45/43 5/30/30
f 73/20/20 80/12/12 20/102/81
f 80/12/12 13/11/11 20/102/81
f 48/2/2 12/49/47 81/103/82
f 70/47/45 48/2/2 81/103/82
f 82/29/29 79/117/43 39/118/78
f 82/29/29 39/118/78 42/14/14
f 4/1/1 17/100/59 26/50/48
f 67/6/6 51/108/83 49/106/61
f 11/44/42 84/119/74 27/88/73
f 84/85/74 11/120/42 57/86/75
