# Blender 3.5.0
# www.blender.org
mtllib SM_Wall_Dots_medium.mtl
o wall_dots_medium_low_Plane.007
v -0.250054 0.713740 0.082966
v -0.301558 0.611368 0.054455
v -0.231322 0.575713 0.143334
v -0.196512 0.661491 0.150562
v -0.173794 0.571802 0.196268
v -0.148228 0.623648 0.201042
v -0.157788 0.570106 0.199672
v -0.134734 0.614873 0.206095
v -0.169934 0.505048 0.192196
v -0.154176 0.508322 0.194457
v -0.137833 0.455386 0.187209
v -0.126496 0.466809 0.191180
v -0.082168 0.427467 0.184433
v -0.080317 0.443454 0.189801
v -0.015814 0.438572 0.188447
v -0.024320 0.452235 0.193836
v 0.028175 0.470902 0.192453
v 0.015763 0.481143 0.195633
v 0.055879 0.521569 0.191623
v 0.039955 0.523892 0.196482
v 0.052014 0.574784 0.198045
v 0.036555 0.570319 0.200736
v 0.018902 0.623675 0.208665
v 0.009638 0.610519 0.209539
v -0.092228 0.635346 0.209164
v -0.096281 0.650923 0.208539
v -0.036132 0.636917 0.214191
v -0.031975 0.652466 0.212049
v 0.063025 0.453535 0.159253
v 0.083224 0.490715 0.164317
v 0.081384 0.449423 0.148159
v 0.097209 0.478133 0.150571
v 0.076704 0.409911 0.128391
v 0.091579 0.421429 0.130990
v 0.121576 0.390225 0.111975
v 0.123516 0.408938 0.113803
v 0.166979 0.399741 0.102862
v 0.155961 0.414991 0.109929
v 0.192109 0.432896 0.094094
v 0.173390 0.434771 0.108615
v 0.122038 0.489708 0.139157
v 0.118598 0.508203 0.149938
v 0.154663 0.481399 0.119356
v 0.163822 0.497831 0.120802
v 0.168111 0.462878 0.110843
v 0.185665 0.469645 0.103652
v 0.091608 0.601128 0.184146
v 0.052841 0.649299 0.190853
v 0.108721 0.625306 0.191958
v 0.075003 0.663409 0.190078
v 0.115481 0.637603 0.189927
v 0.086545 0.671480 0.184383
v 0.187605 0.362972 0.034331
v 0.231803 0.417982 0.027482
v 0.272978 0.392689 0.003084
v 0.221475 0.320100 0.002456
v 0.250766 0.278424 -0.000497
v 0.318331 0.366326 -0.000475
v 0.167433 0.615499 0.186239
v 0.166179 0.629475 0.185411
v 0.221525 0.641129 0.183651
v 0.211728 0.651174 0.182654
v 0.249152 0.690419 0.183284
v 0.235167 0.691562 0.184535
v 0.232178 0.751276 0.179163
v 0.219890 0.744504 0.181058
v 0.182996 0.784736 0.178463
v 0.179716 0.771095 0.178163
v 0.124689 0.787248 0.184983
v 0.130510 0.774482 0.183795
v 0.080752 0.757649 0.186063
v 0.091195 0.748279 0.185266
v 0.061498 0.703060 0.186830
v 0.075512 0.703756 0.183927
v 0.261773 0.766540 0.148754
v 0.193887 0.811418 0.155131
v 0.299228 0.800163 0.075114
v 0.217195 0.854527 0.088408
v 0.257181 0.921157 0.003365
v 0.364800 0.841512 0.008860
v 0.403852 0.864434 0.000793
v 0.284712 0.978834 -0.000529
v 0.024538 0.693847 0.182002
v 0.170042 0.585611 0.167692
v 0.111563 0.539090 0.166471
v 0.248092 0.617382 0.144500
v 0.278228 0.678695 0.152808
v 0.119574 0.814904 0.167622
v 0.053038 0.777370 0.158812
v 0.022357 0.403020 0.135472
v 0.043445 0.354851 0.083043
v 0.120659 0.336098 0.049316
v 0.131865 0.280593 0.006274
v -0.078549 0.379480 0.130545
v -0.171488 0.416741 0.131644
v -0.216128 0.488986 0.141534
v -0.132234 0.699590 0.168332
v -0.051716 0.707379 0.177471
v -0.000498 0.737790 0.155134
v 0.121936 0.867187 0.106114
v 0.030452 0.822132 0.100396
v 0.327620 0.679105 0.086425
v 0.282606 0.582069 0.066409
v 0.171168 0.547097 0.138111
v 0.222281 0.485282 0.060892
v 0.246410 0.528367 0.056505
v 0.275500 0.473850 0.013333
v 0.321337 0.448777 0.000212
v 0.293761 0.512636 0.012996
v 0.345682 0.563005 0.015292
v 0.334428 0.495802 0.001510
v 0.396651 0.535183 0.000689
v 0.401503 0.677226 0.020977
v 0.449812 0.669771 0.003335
v 0.133343 0.937901 0.015286
v 0.133920 1.000241 -0.000212
v 0.011628 0.890516 0.018827
v -0.169151 0.765480 0.102865
v 0.047490 0.300660 0.037515
v -0.078757 0.320113 0.079462
v -0.227694 0.364810 0.064343
v -0.291957 0.462382 0.064156
v -0.049679 0.835803 0.048311
v -0.016940 0.957100 -0.000304
v -0.084016 0.909429 0.003476
v -0.086267 0.244185 0.022415
v -0.293386 0.303547 0.011272
v -0.379822 0.437335 0.008370
v -0.394772 0.636162 0.001434
v -0.338997 0.771039 0.003250
v -0.228147 0.843049 0.017359
v -0.120763 0.841395 0.041469
v -0.083720 0.771687 0.117616
v -0.028094 0.780190 0.115102
v -0.160774 0.919246 0.000951
v -0.275932 0.903057 -0.000329
v -0.397599 0.812364 -0.000529
v -0.461076 0.657973 -0.000529
v -0.461549 0.425909 -0.000510
v -0.341157 0.259204 -0.000341
v -0.088337 0.187133 0.001237
v 0.047832 0.245504 0.007034
v 0.137773 0.231729 -0.000150
v -0.078592 0.457380 0.177883
v -0.115501 0.476086 0.178052
v -0.142291 0.558556 0.178664
v -0.124332 0.595154 0.180735
v -0.138024 0.509102 0.179477
v -0.006571 0.592480 0.165526
v 0.015249 0.558229 0.168611
v -0.091202 0.612797 0.174014
v -0.045115 0.614579 0.171274
v 0.017318 0.520463 0.175051
v -0.002196 0.486420 0.177230
v -0.034201 0.463699 0.178642
v -0.073623 0.497849 0.114266
v -0.093688 0.508111 0.116718
v -0.105943 0.526150 0.118123
v -0.108039 0.552995 0.119611
v -0.098192 0.572852 0.121266
v -0.080120 0.582315 0.118485
v -0.020847 0.532599 0.111428
v -0.031529 0.513885 0.110499
v -0.034126 0.571469 0.112458
v -0.022153 0.553036 0.111821
v -0.049256 0.501304 0.110938
v -0.055131 0.583479 0.115716
v 0.141380 0.458636 0.098687
v 0.147895 0.449790 0.098128
v 0.150361 0.436357 0.099600
v 0.141857 0.426731 0.100118
v 0.124922 0.462203 0.099611
v 0.126110 0.423932 0.102717
v 0.104697 0.442223 0.108558
v 0.112186 0.456016 0.102722
v 0.110369 0.429472 0.108089
v 0.127910 0.441383 0.093821
v -0.066565 0.542448 0.085434
v 0.204032 0.689229 0.149838
v 0.188670 0.663677 0.151902
v 0.159287 0.650638 0.157462
v 0.127156 0.657060 0.164942
v 0.101390 0.698903 0.159297
v 0.110439 0.726537 0.152893
v 0.135415 0.742985 0.145205
v 0.108608 0.678508 0.160747
v 0.167751 0.740666 0.140466
v 0.194213 0.723272 0.143465
v 0.122153 0.694986 0.138517
v 0.126967 0.709946 0.133432
v 0.153953 0.668478 0.137558
v 0.136329 0.672052 0.141879
v 0.173120 0.707785 0.125743
v 0.178564 0.688905 0.129144
v 0.140703 0.718970 0.128806
v 0.170087 0.675281 0.132815
v 0.158526 0.717639 0.125793
v 0.126192 0.683944 0.140124
v 0.147657 0.691897 0.125827
vn -0.5465 0.3297 0.7698
vn -0.6185 0.0765 0.7820
vn -0.7137 0.0515 0.6986
vn -0.5799 0.3321 0.7439
vn -0.4941 0.0238 0.8691
vn -0.4120 0.2282 0.8821
vn 0.2062 -0.1389 0.9686
vn 0.1014 -0.2409 0.9652
vn -0.4558 -0.2223 0.8619
vn 0.2432 -0.0038 0.9700
vn -0.3218 -0.4498 0.8331
vn 0.1615 0.0873 0.9830
vn -0.0856 -0.5874 0.8048
vn 0.0049 0.1136 0.9935
vn 0.1626 -0.5411 0.8251
vn -0.1316 0.1367 0.9818
vn 0.3307 -0.3631 0.8711
vn -0.1840 0.1201 0.9756
vn 0.3766 -0.1850 0.9077
vn -0.2063 -0.0067 0.9785
vn 0.3174 -0.0457 0.9472
vn -0.2354 -0.2109 0.9487
vn 0.2307 0.1239 0.9651
vn -0.1725 -0.3553 0.9187
vn 0.0209 -0.3668 0.9301
vn -0.1878 0.3360 0.9230
vn -0.0872 -0.3701 0.9249
vn 0.0418 0.3128 0.9489
vn 0.3944 -0.4713 0.7889
vn 0.4907 -0.3279 0.8073
vn 0.5580 -0.3597 0.7478
vn 0.5666 -0.4282 0.7040
vn 0.0894 -0.5559 0.8264
vn 0.5249 -0.1546 0.8370
vn 0.2218 -0.5534 0.8028
vn 0.2978 0.1230 0.9467
vn 0.4844 -0.4800 0.7314
vn 0.1293 0.0659 0.9894
vn 0.6989 -0.2410 0.6734
vn 0.1909 -0.0683 0.9792
vn 0.4386 -0.5251 0.7293
vn 0.4689 -0.3429 0.8140
vn 0.2215 -0.4727 0.8529
vn 0.5281 -0.2676 0.8060
vn 0.1034 -0.2469 0.9635
vn 0.6336 -0.1453 0.7599
vn 0.2226 -0.1722 0.9596
vn 0.1153 0.1102 0.9872
vn 0.0525 -0.1181 0.9916
vn 0.0429 0.0796 0.9959
vn 0.2370 0.3783 0.8948
vn 0.4109 0.2951 0.8626
vn 0.4567 -0.4967 0.7380
vn 0.5994 -0.2760 0.7514
vn 0.2545 -0.1373 0.9573
vn 0.1859 -0.1987 0.9623
vn 0.0526 -0.0619 0.9967
vn 0.0888 -0.0538 0.9946
vn 0.1695 -0.2856 0.9432
vn 0.0178 0.4140 0.9101
vn 0.3228 -0.2894 0.9011
vn -0.2407 0.2891 0.9265
vn 0.4635 -0.0263 0.8857
vn -0.2824 0.0698 0.9568
vn 0.3765 0.2809 0.8828
vn -0.2492 -0.1198 0.9610
vn 0.1925 0.3560 0.9145
vn -0.0743 -0.3368 0.9387
vn -0.0428 0.3234 0.9453
vn 0.1726 -0.3422 0.9236
vn -0.1936 0.2261 0.9547
vn 0.3289 -0.2201 0.9183
vn -0.0815 0.1473 0.9857
vn 0.4337 0.0294 0.9006
vn 0.6446 0.4125 0.6437
vn 0.3134 0.6638 0.6791
vn 0.5979 0.4238 0.6804
vn 0.3299 0.6933 0.6407
vn 0.1815 0.3695 0.9113
vn 0.3243 0.2279 0.9181
vn 0.1603 0.1010 0.9819
vn 0.0603 0.1228 0.9906
vn -0.0599 0.3545 0.9331
vn 0.2632 -0.5876 0.7652
vn 0.4494 -0.2159 0.8668
vn 0.5875 -0.5131 0.6258
vn 0.7560 -0.1328 0.6410
vn -0.1313 0.6681 0.7324
vn -0.3806 0.5223 0.7631
vn 0.2602 -0.6625 0.7024
vn 0.1382 -0.6530 0.7447
vn 0.2318 -0.6351 0.7368
vn 0.1620 -0.3434 0.9251
vn -0.0670 -0.7052 0.7059
vn -0.4262 -0.5592 0.7110
vn -0.6611 -0.2585 0.7043
vn -0.3042 0.5324 0.7899
vn -0.0633 0.5891 0.8056
vn -0.1857 0.5524 0.8126
vn -0.0959 0.7625 0.6398
vn -0.3495 0.6768 0.6480
vn 0.7214 -0.0993 0.6853
vn 0.5738 -0.4725 0.6689
vn 0.4870 -0.4349 0.7574
vn 0.6840 -0.2147 0.6972
vn 0.5837 -0.3953 0.7092
vn 0.4187 -0.1786 0.8904
vn 0.1764 -0.0804 0.9810
vn 0.3951 -0.2921 0.8709
vn 0.3643 -0.2986 0.8821
vn 0.1934 -0.1680 0.9666
vn 0.2186 -0.1794 0.9592
vn 0.4260 -0.0398 0.9039
vn 0.2634 -0.0301 0.9642
vn -0.0189 0.4722 0.8813
vn 0.0012 0.1926 0.9813
vn -0.1841 0.5118 0.8392
vn -0.3113 0.5789 0.7536
vn 0.1516 -0.5237 0.8383
vn -0.0364 -0.6249 0.7798
vn -0.3716 -0.4634 0.8044
vn -0.5707 -0.1836 0.8004
vn -0.1323 0.6299 0.7654
vn -0.0701 0.3146 0.9466
vn -0.0348 0.4437 0.8955
vn -0.0160 -0.4451 0.8953
vn -0.2094 -0.2675 0.9405
vn -0.2714 -0.0788 0.9592
vn -0.2686 0.0411 0.9624
vn -0.2614 0.1518 0.9532
vn -0.2204 0.3681 0.9033
vn -0.0836 0.5787 0.8112
vn -0.1068 0.6830 0.7226
vn -0.1930 0.6762 0.7110
vn -0.0850 0.3787 0.9216
vn -0.1237 0.1768 0.9764
vn -0.0789 0.0460 0.9958
vn -0.0550 0.0119 0.9984
vn -0.0947 -0.0248 0.9952
vn -0.1150 -0.1532 0.9815
vn -0.0053 -0.3356 0.9420
vn 0.1248 -0.3731 0.9193
vn 0.1000 -0.2037 0.9739
vn 0.1230 0.7481 0.6521
vn 0.5163 0.5638 0.6447
vn 0.7885 -0.1639 0.5928
vn 0.5914 -0.5662 0.5741
vn 0.7452 0.2489 0.6186
vn -0.5639 -0.6363 0.5264
vn -0.7818 -0.2325 0.5786
vn 0.2541 -0.8122 0.5251
vn -0.1721 -0.8474 0.5023
vn -0.7569 0.2200 0.6154
vn -0.5728 0.5514 0.6065
vn -0.2864 0.7310 0.6194
vn 0.1727 0.7092 0.6835
vn 0.5274 0.5294 0.6645
vn 0.7301 0.2236 0.6457
vn 0.7484 -0.1769 0.6392
vn 0.5752 -0.5290 0.6239
vn 0.2693 -0.7175 0.6424
vn -0.6896 0.1666 0.7048
vn -0.5239 0.4763 0.7062
vn -0.4599 -0.5532 0.6946
vn -0.6737 -0.2126 0.7077
vn -0.2279 0.6749 0.7018
vn -0.1068 -0.7489 0.6540
vn -0.1051 -0.4855 0.8679
vn -0.2961 -0.1820 0.9377
vn -0.3223 0.1434 0.9357
vn -0.1221 0.4343 0.8925
vn 0.2547 -0.5620 0.7869
vn 0.2468 0.5178 0.8191
vn 0.7470 -0.0542 0.6626
vn 0.5981 -0.3623 0.7148
vn 0.6026 0.3288 0.7272
vn 0.1635 0.0993 0.9815
vn 0.0823 -0.0419 0.9957
vn -0.6901 0.1625 0.7052
vn -0.4403 0.6034 0.6649
vn 0.0083 0.7773 0.6290
vn 0.3930 0.6707 0.6290
vn 0.7194 0.0744 0.6906
vn 0.6287 -0.3394 0.6997
vn 0.2852 -0.6240 0.7275
vn 0.6145 0.4313 0.6606
vn -0.1850 -0.6252 0.7582
vn -0.5812 -0.3304 0.7437
vn 0.6201 0.1697 0.7660
vn 0.5394 -0.1136 0.8343
vn 0.1107 0.6513 0.7507
vn 0.3935 0.5996 0.6969
vn -0.3264 -0.1171 0.9380
vn -0.4145 0.2193 0.8832
vn 0.2826 -0.3154 0.9059
vn -0.2172 0.5211 0.8254
vn -0.0425 -0.3107 0.9496
vn 0.5367 0.4171 0.7335
vn 0.1973 0.2285 0.9533
vt 0.753754 0.419180
vt 0.809865 0.515477
vt 0.705928 0.551274
vt 0.677079 0.472184
vt 0.636184 0.554788
vt 0.615437 0.507845
vt 0.621467 0.556056
vt 0.752439 0.038492
vt 0.602013 0.514561
vt 0.713927 0.070560
vt 0.599855 0.653842
vt 0.634908 0.615338
vt 0.620119 0.612683
vt 0.589206 0.643901
vt 0.809633 0.015921
vt 0.553453 0.677098
vt 0.549586 0.663333
vt 0.858600 0.015242
vt 0.499841 0.677596
vt 0.504252 0.663529
vt 0.906288 0.031084
vt 0.450421 0.646759
vt 0.461895 0.637307
vt 0.948531 0.066450
vt 0.422945 0.608256
vt 0.436050 0.602313
vt 0.972522 0.108382
vt 0.408709 0.559373
vt 0.423888 0.560386
vt 0.981943 0.155947
vt 0.423715 0.512726
vt 0.436740 0.520158
vt 0.973854 0.201750
vt 0.465812 0.477439
vt 0.470833 0.491215
vt 0.953007 0.245718
vt 0.566819 0.490794
vt 0.694667 0.113136
vt 0.572765 0.477866
vt 0.517464 0.479178
vt 0.682814 0.167421
vt 0.917329 0.282572
vt 0.517133 0.464450
vt 0.379447 0.621595
vt 0.370776 0.583582
vt 0.359477 0.622530
vt 0.178571 0.920420
vt 0.351957 0.593416
vt 0.178719 0.888538
vt 0.349095 0.661413
vt 0.340059 0.646954
vt 0.153530 0.942084
vt 0.304261 0.667653
vt 0.306629 0.651603
vt 0.117646 0.947211
vt 0.268106 0.651449
vt 0.280536 0.640448
vt 0.086713 0.941412
vt 0.248306 0.621997
vt 0.268594 0.621711
vt 0.068698 0.923759
vt 0.328725 0.579447
vt 0.100885 0.846783
vt 0.159188 0.867440
vt 0.338722 0.562154
vt 0.292923 0.582944
vt 0.076651 0.874200
vt 0.287557 0.565914
vt 0.276669 0.598151
vt 0.069316 0.896359
vt 0.260357 0.590474
vt 0.390708 0.480018
vt 0.438615 0.443722
vt 0.381588 0.452477
vt 0.420971 0.425557
vt 0.378511 0.439663
vt 0.890526 0.878779
vt 0.411606 0.414814
vt 0.926338 0.852517
vt 0.213210 0.695771
vt 0.180239 0.637955
vt 0.133348 0.655446
vt 0.165782 0.731831
vt 0.130024 0.762321
vt 0.087938 0.670608
vt 0.327346 0.445234
vt 0.331809 0.433355
vt 0.840118 0.876413
vt 0.287134 0.411386
vt 0.297195 0.404570
vt 0.796012 0.853040
vt 0.270236 0.366218
vt 0.282345 0.366019
vt 0.768572 0.816532
vt 0.299112 0.293288
vt 0.283189 0.312775
vt 0.294350 0.318537
vt 0.306457 0.303942
vt 0.772199 0.763400
vt 0.352330 0.285880
vt 0.349989 0.298136
vt 0.800924 0.725390
vt 0.400594 0.303421
vt 0.392258 0.312330
vt 0.948625 0.736242
vt 0.839120 0.697443
vt 0.431688 0.337466
vt 0.420720 0.343897
vt 0.959890 0.781336
vt 0.441599 0.390805
vt 0.428172 0.387519
vt 0.948613 0.826877
vt 0.279941 0.256383
vt 0.244692 0.296516
vt 0.353384 0.252810
vt 0.173344 0.260061
vt 0.260060 0.177448
vt 0.351550 0.177770
vt 0.345268 0.069432
vt 0.091295 0.218111
vt 0.221264 0.092301
vt 0.198060 0.056610
vt 0.054624 0.197896
vt 0.344249 0.008938
vt 0.475121 0.406438
vt 0.314165 0.474860
vt 0.356139 0.533891
vt 0.246536 0.434343
vt 0.233875 0.375318
vt 0.413741 0.278231
vt 0.467470 0.319952
vt 0.395656 0.682160
vt 0.351326 0.732915
vt 0.271411 0.734152
vt 0.236694 0.790059
vt 0.472817 0.735966
vt 0.563982 0.743832
vt 0.632983 0.707859
vt 0.697424 0.630631
vt 0.619536 0.433152
vt 0.548744 0.411597
vt 0.511659 0.364441
vt 0.435432 0.210223
vt 0.512448 0.264637
vt 0.157797 0.374941
vt 0.174562 0.476108
vt 0.295982 0.516677
vt 0.210030 0.574568
vt 0.192574 0.533293
vt 0.145149 0.581790
vt 0.099346 0.597175
vt 0.134653 0.544994
vt 0.098518 0.490416
vt 0.095202 0.553724
vt 0.047112 0.508570
vt 0.063047 0.374814
vt 0.014625 0.379349
vt 0.462607 0.103163
vt 0.482893 0.045690
vt 0.563145 0.178306
vt 0.679738 0.364140
vt 0.321851 0.790902
vt 0.445428 0.802806
vt 0.588305 0.835120
vt 0.686502 0.792493
vt 0.796993 0.654174
vt 0.600285 0.249891
vt 0.606318 0.124689
vt 0.653853 0.183467
vt 0.416801 0.887180
vt 0.615175 0.929154
vt 0.892088 0.678177
vt 0.747919 0.866178
vt 0.911028 0.493769
vt 0.866520 0.362371
vt 0.769399 0.279772
vt 0.665841 0.262759
vt 0.601486 0.342922
vt 0.554088 0.319649
vt 0.723864 0.194393
vt 0.824575 0.230862
vt 0.925575 0.329406
vt 0.973424 0.476841
vt 0.967168 0.690715
vt 0.806402 0.914306
vt 0.633461 0.987138
vt 0.395790 0.938737
vt 0.300290 0.844038
vt 0.218235 0.831842
vt 0.897027 0.046182
vt 0.858270 0.034170
vt 0.774390 0.056035
vt 0.744757 0.083145
vt 0.819019 0.035398
vt 0.916903 0.213649
vt 0.939787 0.181961
vt 0.735234 0.119291
vt 0.888295 0.244866
vt 0.731254 0.164477
vt 0.952490 0.146948
vt 0.946955 0.109128
vt 0.929680 0.075199
vt 0.864162 0.102474
vt 0.846992 0.096487
vt 0.829213 0.097439
vt 0.809265 0.106593
vt 0.795429 0.119574
vt 0.791633 0.137256
vt 0.887674 0.148909
vt 0.884726 0.132239
vt 0.872191 0.179238
vt 0.883252 0.164686
vt 0.877202 0.116997
vt 0.854411 0.193532
vt 0.793140 0.160479
vt 0.096652 0.897814
vt 0.092222 0.906767
vt 0.091323 0.919216
vt 0.099847 0.927233
vt 0.123173 0.893947
vt 0.110754 0.890903
vt 0.114194 0.929993
vt 0.136380 0.917469
vt 0.131772 0.903764
vt 0.129547 0.927539
vt 0.112178 0.911777
vt 0.841002 0.144029
vt 0.810085 0.808796
vt 0.825190 0.829849
vt 0.850188 0.844160
vt 0.880824 0.847798
vt 0.915519 0.815127
vt 0.918051 0.786851
vt 0.905214 0.759429
vt 0.857795 0.741357
vt 0.902365 0.831098
vt 0.833054 0.758088
vt 0.815018 0.778542
vt 0.889804 0.805520
vt 0.889850 0.790428
vt 0.856378 0.821487
vt 0.872274 0.822768
vt 0.839035 0.787483
vt 0.836392 0.802995
vt 0.864068 0.769723
vt 0.881503 0.776541
vt 0.843513 0.814121
vt 0.848702 0.776870
vt 0.883344 0.814164
vt 0.863741 0.797871
s 1
usemtl Material
f 1/1/1 2/2/2 3/3/3 4/4/4
f 4/4/4 3/3/3 5/5/5 6/6/6
f 6/6/6 5/5/5 7/7/7 8/9/8
f 7/7/7 5/5/5 9/12/9 10/13/10
f 10/14/10 9/11/9 11/16/11 12/17/12
f 12/17/12 11/16/11 13/19/13 14/20/14
f 14/20/14 13/19/13 15/22/15 16/23/16
f 16/23/16 15/22/15 17/25/17 18/26/18
f 18/26/18 17/25/17 19/28/19 20/29/20
f 20/29/20 19/28/19 21/31/21 22/32/22
f 22/32/22 21/31/21 23/34/23 24/35/24
f 6/6/6 8/9/8 25/37/25 26/39/26
f 26/39/26 25/37/25 27/40/27 28/43/28
f 28/43/28 27/40/27 24/35/24 23/34/23
f 19/28/19 17/25/17 29/44/29 30/45/30
f 30/45/30 29/44/29 31/46/31 32/48/32
f 31/46/31 29/44/29 33/50/33 34/51/34
f 34/51/34 33/50/33 35/53/35 36/54/36
f 36/54/36 35/53/35 37/56/37 38/57/38
f 38/57/38 37/56/37 39/59/39 40/60/40
f 30/45/30 32/48/32 41/62/41 42/65/42
f 42/65/42 41/62/41 43/66/43 44/68/44
f 44/68/44 43/66/43 45/69/45 46/71/46
f 46/71/46 45/69/45 40/60/40 39/59/39
f 23/34/23 21/31/21 47/72/47 48/73/48
f 48/73/48 47/72/47 49/74/49 50/75/50
f 50/75/50 49/74/49 51/76/51 52/78/52
f 39/59/39 37/56/37 53/80/53 54/81/54
f 55/82/55 56/83/56 57/84/57 58/85/58
f 51/76/51 49/74/49 59/86/59 60/87/60
f 60/87/60 59/86/59 61/89/61 62/90/62
f 62/90/62 61/89/61 63/92/63 64/93/64
f 64/93/64 63/92/63 65/96/65 66/97/66
f 66/98/66 65/95/65 67/100/67 68/101/68
f 68/101/68 67/100/67 69/103/69 70/104/70
f 70/104/70 69/103/69 71/107/71 72/108/72
f 72/108/72 71/107/71 73/110/73 74/111/74
f 74/111/74 73/110/73 50/75/50 52/78/52
f 67/100/67 65/95/65 75/113/75 76/115/76
f 76/115/76 75/113/75 77/117/77 78/118/78
f 79/119/79 80/121/80 81/122/81 82/124/82
f 28/43/28 23/34/23 48/73/48 83/125/83
f 73/110/73 83/125/83 48/73/48 50/75/50
f 84/126/84 59/86/59 49/74/49 47/72/47
f 85/127/85 47/72/47 21/31/21 19/28/19
f 30/45/30 42/65/42 85/127/85
f 61/89/61 59/86/59 84/126/84 86/128/86
f 63/92/63 61/89/61 86/128/86 87/129/87
f 65/96/65 63/92/63 87/129/87 75/114/75
f 69/103/69 67/100/67 76/115/76 88/130/88
f 71/107/71 69/103/69 88/130/88 89/131/89
f 73/110/73 71/107/71 89/131/89 83/125/83
f 90/132/90 29/44/29 17/25/17 15/22/15
f 29/44/29 90/132/90 91/133/91
f 35/53/35 33/50/33 91/133/91 92/134/92
f 37/56/37 35/53/35 92/134/92 53/80/53
f 56/83/56 53/80/53 92/134/92 93/135/93
f 94/136/94 90/132/90 15/22/15 13/19/13
f 95/137/95 94/136/94 13/19/13 11/16/11
f 96/138/96 95/137/95 11/16/11 9/11/9
f 3/3/3 96/139/96 9/12/9 5/5/5
f 4/4/4 6/6/6 26/39/26 97/140/97
f 97/140/97 26/39/26 28/43/28 98/141/98
f 98/141/98 28/43/28 83/125/83
f 99/142/99 83/125/83 89/131/89
f 100/143/100 101/144/101 89/131/89 88/130/88
f 78/118/78 100/143/100 88/130/88 76/115/76
f 102/145/102 77/116/77 75/114/75 87/129/87
f 102/145/102 87/129/87 86/128/86 103/146/103
f 104/147/104 103/146/103 86/128/86 84/126/84
f 47/72/47 85/127/85 104/147/104
f 104/147/104 85/127/85 42/65/42 44/68/44
f 105/148/105 104/147/104 44/68/44 46/71/46
f 104/147/104 105/148/105 106/149/106
f 54/81/54 105/148/105 46/71/46 39/59/39
f 107/150/107 55/82/55 58/85/58 108/151/108
f 103/146/103 104/147/104 106/149/106
f 109/152/109 106/149/106 105/148/105 107/150/107
f 110/153/110 109/152/109 111/154/111 112/155/112
f 113/156/113 110/153/110 112/155/112 114/157/114
f 80/120/80 113/156/113 114/157/114 81/123/81
f 115/158/115 79/119/79 82/124/82 116/159/116
f 117/160/117 101/144/101 100/143/100 115/158/115
f 1/1/1 4/4/4 97/140/97 118/161/118
f 99/142/99 98/141/98 83/125/83
f 119/162/119 93/135/93 92/134/92 91/133/91
f 91/133/91 90/132/90 94/136/94 120/163/120
f 121/164/121 120/163/120 94/136/94 95/137/95
f 122/165/122 121/164/121 95/137/95 96/138/96
f 2/2/2 122/166/122 96/139/96 3/3/3
f 123/167/123 117/160/117 124/168/124 125/169/125
f 119/162/119 91/133/91 120/163/120 126/170/126
f 127/171/127 126/170/126 120/163/120 121/164/121
f 128/173/128 127/171/127 121/164/121 122/165/122
f 129/174/129 128/172/128 122/166/122 2/2/2
f 130/175/130 129/174/129 2/2/2 1/1/1
f 131/176/131 130/175/130 1/1/1 118/161/118
f 123/167/123 132/177/132 133/178/133 134/179/134
f 125/169/125 135/180/135 132/177/132 123/167/123
f 136/181/136 137/182/137 130/175/130 131/176/131
f 137/182/137 138/183/138 129/174/129 130/175/130
f 138/183/138 139/184/139 128/172/128 129/174/129
f 139/185/139 140/186/140 127/171/127 128/173/128
f 140/186/140 141/187/141 126/170/126 127/171/127
f 142/188/142 119/162/119 126/170/126 141/187/141
f 142/188/142 143/189/143 93/135/93 119/162/119
f 124/168/124 117/160/117 115/158/115 116/159/116
f 100/143/100 78/118/78 79/119/79 115/158/115
f 77/116/77 102/145/102 113/156/113 80/120/80
f 102/145/102 103/146/103 110/153/110 113/156/113
f 103/146/103 106/149/106 109/152/109 110/153/110
f 111/154/111 109/152/109 107/150/107 108/151/108
f 105/148/105 54/81/54 55/82/55 107/150/107
f 57/84/57 56/83/56 93/135/93 143/189/143
f 78/118/78 77/117/77 80/121/80 79/119/79
f 54/81/54 53/80/53 56/83/56 55/82/55
f 134/179/134 133/178/133 98/141/98 99/142/99
f 133/178/133 132/177/132 131/176/131 118/161/118
f 98/141/98 133/178/133 118/161/118 97/140/97
f 132/177/132 135/180/135 136/181/136 131/176/131
f 134/179/134 101/144/101 117/160/117 123/167/123
f 101/144/101 134/179/134 99/142/99 89/131/89
f 12/18/12 14/21/14 144/190/144 145/191/145
f 8/10/8 7/8/7 146/192/146 147/193/147
f 10/15/10 12/18/12 145/191/145 148/194/148
f 7/8/7 10/15/10 148/194/148 146/192/146
f 22/33/22 24/36/24 149/195/149 150/196/150
f 27/41/27 25/38/25 151/197/151 152/199/152
f 20/30/20 22/33/22 150/196/150 153/200/153
f 25/38/25 8/10/8 147/193/147 151/197/151
f 18/27/18 20/30/20 153/200/153 154/201/154
f 16/24/16 18/27/18 154/201/154 155/202/155
f 14/21/14 16/24/16 155/202/155 144/190/144
f 24/36/24 27/42/27 152/198/152 149/195/149
f 145/191/145 144/190/144 156/203/156 157/204/157
f 148/194/148 145/191/145 157/204/157 158/205/158
f 147/193/147 146/192/146 159/206/159 160/207/160
f 151/197/151 147/193/147 160/207/160 161/208/161
f 154/201/154 153/200/153 162/209/162 163/210/163
f 150/196/150 149/195/149 164/211/164 165/212/165
f 144/190/144 155/202/155 166/213/166 156/203/156
f 149/195/149 152/198/152 167/214/167 164/211/164
f 152/199/152 151/197/151 161/208/161 167/215/167
f 155/202/155 154/201/154 163/210/163 166/213/166
f 153/200/153 150/196/150 165/212/165 162/209/162
f 146/192/146 148/194/148 158/205/158 159/206/159
f 45/70/45 43/67/43 168/216/168 169/217/169
f 38/58/38 40/61/40 170/218/170 171/219/171
f 43/67/43 41/63/41 172/221/172 168/216/168
f 36/55/36 38/58/38 171/219/171 173/222/173
f 32/49/32 31/47/31 174/223/174 175/224/175
f 41/64/41 32/49/32 175/224/175 172/220/172
f 34/52/34 36/55/36 173/222/173 176/225/176
f 31/47/31 34/52/34 176/225/176 174/223/174
f 40/61/40 45/70/45 169/217/169 170/218/170
f 170/218/170 169/217/169 177/226/177
f 176/225/176 173/222/173 177/226/177
f 172/220/172 175/224/175 177/226/177
f 169/217/169 168/216/168 177/226/177
f 174/223/174 176/225/176 177/226/177
f 171/219/171 170/218/170 177/226/177
f 175/224/175 174/223/174 177/226/177
f 173/222/173 171/219/171 177/226/177
f 168/216/168 172/221/172 177/226/177
f 157/204/157 156/203/156 178/227/178
f 163/210/163 162/209/162 178/227/178
f 161/208/161 160/207/160 178/227/178
f 158/205/158 157/204/157 178/227/178
f 166/213/166 163/210/163 178/227/178
f 165/212/165 164/211/164 178/227/178
f 159/206/159 158/205/158 178/227/178
f 164/211/164 167/214/167 178/227/178
f 156/203/156 166/213/166 178/227/178
f 162/209/162 165/212/165 178/227/178
f 160/207/160 159/206/159 178/227/178
f 167/215/167 161/208/161 178/227/178
f 62/91/62 64/94/64 179/228/179 180/229/180
f 60/88/60 62/91/62 180/229/180 181/230/181
f 51/77/51 60/88/60 181/230/181 182/231/182
f 72/109/72 74/112/74 183/232/183 184/233/184
f 70/105/70 72/109/72 184/233/184 185/234/185
f 74/112/74 52/79/52 186/236/186 183/232/183
f 52/79/52 51/77/51 182/231/182 186/236/186
f 68/102/68 70/106/70 185/235/185 187/237/187
f 66/99/66 68/102/68 187/237/187 188/238/188
f 64/94/64 66/99/66 188/238/188 179/228/179
f 184/233/184 183/232/183 189/239/189 190/240/190
f 182/231/182 181/230/181 191/241/191 192/242/192
f 179/228/179 188/238/188 193/243/193 194/244/194
f 185/234/185 184/233/184 190/240/190 195/246/195
f 180/229/180 179/228/179 194/244/194 196/247/196
f 187/237/187 185/235/185 195/245/195 197/248/197
f 186/236/186 182/231/182 192/242/192 198/249/198
f 183/232/183 186/236/186 198/249/198 189/239/189
f 181/230/181 180/229/180 196/247/196 191/241/191
f 188/238/188 187/237/187 197/248/197 193/243/193
f 196/247/196 194/244/194 199/250/199
f 197/248/197 195/245/195 199/250/199
f 190/240/190 189/239/189 199/250/199
f 191/241/191 196/247/196 199/250/199
f 189/239/189 198/249/198 199/250/199
f 193/243/193 197/248/197 199/250/199
f 192/242/192 191/241/191 199/250/199
f 194/244/194 193/243/193 199/250/199
f 195/246/195 190/240/190 199/250/199
f 198/249/198 192/242/192 199/250/199
f 84/126/84 47/72/47 104/147/104
f 33/50/33 29/44/29 91/133/91
f 19/28/19 30/45/30 85/127/85
