# Blender v2.93.4 OBJ File: 'decidit.blend'
# www.blender.org
mtllib SM_Mushroom_04.mtl
o Plane.005_Plane.012
v -0.049275 0.000197 0.026694
v 0.002841 0.000197 0.026694
v -0.049275 0.000197 -0.025423
v 0.002841 0.000197 -0.025423
v -0.047218 0.150279 -0.023365
v -0.047218 0.150279 0.024636
v 0.000783 0.150279 0.024636
v 0.000783 0.150279 -0.023365
v -0.052257 0.242424 -0.028405
v -0.052257 0.242424 0.029675
v 0.005823 0.242424 0.029675
v 0.005823 0.242424 -0.028405
v -0.055293 0.315339 -0.031440
v -0.055293 0.315339 0.032711
v 0.008858 0.315339 0.032711
v 0.008858 0.315339 -0.031440
v -0.052042 0.355413 -0.028189
v -0.052042 0.355413 0.029460
v 0.005607 0.355413 0.029460
v 0.005607 0.355413 -0.028189
v -0.036020 0.379023 -0.012167
v -0.036020 0.379023 0.013438
v -0.010415 0.379023 0.013438
v -0.010415 0.379023 -0.012167
v -0.058447 0.000197 0.000635
v 0.012013 0.000197 0.000635
v -0.055665 0.150279 0.000635
v 0.009231 0.150279 0.000635
v -0.062478 0.242424 0.000635
v 0.016044 0.242424 0.000635
v -0.066582 0.315339 0.000635
v 0.020148 0.315339 0.000635
v -0.062187 0.355413 0.000635
v 0.015753 0.355413 0.000635
v -0.040526 0.379023 0.000635
v -0.005909 0.379023 0.000635
v -0.023217 0.000197 0.035735
v -0.023217 0.000197 -0.034464
v -0.023217 0.150279 0.032963
v -0.023217 0.150279 -0.031693
v -0.023217 0.242424 0.039751
v -0.023217 0.242424 -0.038481
v -0.023217 0.315339 0.043840
v -0.023217 0.315339 -0.042569
v -0.023217 0.355413 0.039461
v -0.023217 0.355413 -0.038190
v -0.023217 0.379023 0.017880
v -0.023217 0.379023 -0.016609
v -0.023217 0.383191 0.000635
v -0.046532 0.078860 0.023951
v -0.046532 0.078860 -0.022680
v 0.000098 0.078860 -0.022680
v 0.000098 0.078860 0.023951
v 0.008305 0.078860 0.000635
v -0.054739 0.078860 0.000635
v -0.023217 0.078860 0.032040
v -0.023217 0.078860 -0.030770
vt 0.546453 0.335478
vt 0.508530 0.335760
vt 0.506738 0.205862
vt 0.546453 0.205955
vt 0.471321 0.443729
vt 0.434489 0.443124
vt 0.433054 0.337182
vt 0.470640 0.336102
vt 0.546453 0.444194
vt 0.508851 0.444073
vt 0.694807 0.442152
vt 0.658417 0.443124
vt 0.659853 0.337182
vt 0.696886 0.339012
vt 0.621586 0.443729
vt 0.584055 0.444073
vt 0.584376 0.335760
vt 0.622267 0.336102
vt 0.626362 0.205595
vt 0.586168 0.205862
vt 0.584701 0.118738
vt 0.622191 0.116664
vt 0.668016 0.205236
vt 0.711681 0.205962
vt 0.424891 0.205236
vt 0.466545 0.205595
vt 0.584616 0.075894
vt 0.616090 0.073738
vt 0.431893 0.110533
vt 0.470715 0.116665
vt 0.508206 0.118738
vt 0.546453 0.117920
vt 0.661014 0.110533
vt 0.708469 0.098022
vt 0.546453 0.065261
vt 0.508291 0.075894
vt 0.500899 0.037519
vt 0.516660 0.027776
vt 0.445458 0.066503
vt 0.476816 0.073737
vt 0.647448 0.066503
vt 0.680058 0.042690
vt 0.597678 0.013059
vt 0.609996 0.035845
vt 0.592007 0.037519
vt 0.576247 0.027776
vt 0.627650 0.031698
vt 0.639388 0.017251
vt 0.465257 0.031698
vt 0.482910 0.035845
vt 0.614320 0.010294
vt 0.453518 0.017251
vt 0.478586 0.010294
vt 0.412849 0.042690
vt 0.495229 0.013059
vt 0.384437 0.098022
vt 0.381225 0.205962
vt 0.396020 0.339011
vt 0.398099 0.442151
vt 0.585955 0.561094
vt 0.546453 0.561175
vt 0.427841 0.558306
vt 0.388405 0.555364
vt 0.506951 0.561094
vt 0.467405 0.559905
vt 0.665066 0.558306
vt 0.625502 0.559905
vt 0.704502 0.555364
vn 0.0000 -0.0435 -0.9991
vn -0.7048 -0.0457 -0.7079
vn -0.7039 -0.0678 -0.7070
vn 0.0000 -0.0646 -0.9979
vn -0.9998 0.0172 0.0000
vn -0.7054 0.0180 0.7086
vn -0.7048 -0.0457 0.7079
vn -0.9990 -0.0436 0.0000
vn 0.0000 0.0171 -0.9998
vn -0.7054 0.0180 -0.7086
vn 0.0000 0.0171 0.9998
vn 0.7054 0.0180 0.7086
vn 0.7048 -0.0457 0.7079
vn 0.0000 -0.0435 0.9990
vn 0.9998 0.0172 0.0000
vn 0.7054 0.0180 -0.7086
vn 0.7048 -0.0457 -0.7079
vn 0.9990 -0.0436 0.0000
vn 0.9979 -0.0648 0.0000
vn 0.7039 -0.0678 -0.7070
vn 0.7053 0.0270 -0.7084
vn 0.9996 0.0260 0.0000
vn 0.7039 -0.0678 0.7070
vn 0.0000 -0.0646 0.9979
vn -0.7039 -0.0678 0.7070
vn -0.9979 -0.0648 0.0000
vn 0.6483 0.3947 -0.6511
vn 0.9207 0.3901 0.0000
vn -0.7053 0.0270 0.7084
vn -0.9996 0.0260 0.0000
vn -0.7053 0.0270 -0.7084
vn 0.0000 0.0259 -0.9996
vn 0.7053 0.0270 0.7084
vn 0.0000 0.0259 0.9996
vn 0.0000 0.3894 -0.9210
vn -0.6483 0.3947 -0.6511
vn -0.3883 0.8348 -0.3903
vn 0.0000 0.8498 -0.5271
vn -0.6483 0.3947 0.6511
vn -0.9207 0.3901 0.0000
vn 0.6483 0.3947 0.6511
vn 0.0000 0.3894 0.9210
vn 0.0000 1.0000 0.0000
vn 0.5266 0.8501 0.0000
vn 0.3883 0.8348 -0.3903
vn 0.3883 0.8348 0.3903
vn 0.0000 0.8498 0.5271
vn -0.3883 0.8348 0.3903
vn -0.5266 0.8501 0.0000
vn 0.7047 0.0492 -0.7078
vn 0.0000 0.0469 -0.9989
vn -0.7047 0.0492 0.7078
vn 0.0000 0.0469 0.9989
vn -0.7047 0.0492 -0.7078
vn -0.9989 0.0471 0.0000
vn 0.7047 0.0492 0.7078
vn 0.9989 0.0471 0.0000
usemtl None
s 1
f 40/1/1 5/2/2 9/3/3 42/4/4
f 55/5/5 50/6/6 6/7/7 27/8/8
f 57/9/9 51/10/10 5/2/2 40/1/1
f 56/11/11 53/12/12 7/13/13 39/14/14
f 54/15/15 52/16/16 8/17/17 28/18/18
f 30/19/19 12/20/20 16/21/21 32/22/22
f 39/14/14 7/13/13 11/23/23 41/24/24
f 28/18/18 8/17/17 12/20/20 30/19/19
f 27/8/8 6/7/7 10/25/25 29/26/26
f 32/22/22 16/21/21 20/27/27 34/28/28
f 29/26/26 10/25/25 14/29/29 31/30/30
f 42/4/4 9/3/3 13/31/31 44/32/32
f 41/24/24 11/23/23 15/33/33 43/34/34
f 46/35/35 17/36/36 21/37/37 48/38/38
f 31/30/30 14/29/29 18/39/39 33/40/40
f 44/32/32 13/31/31 17/36/36 46/35/35
f 43/34/34 15/33/33 19/41/41 45/42/42
f 49/43/43 36/44/44 24/45/45 48/46/38
f 45/42/42 19/41/41 23/47/46 47/48/47
f 34/28/28 20/27/27 24/45/45 36/44/44
f 33/40/40 18/39/39 22/49/48 35/50/49
f 17/36/36 33/40/40 35/50/49 21/37/37
f 19/41/41 34/28/28 36/44/44 23/47/46
f 47/48/47 23/47/46 36/44/44 49/51/43
f 13/31/31 31/30/30 33/40/40 17/36/36
f 9/3/3 29/26/26 31/30/30 13/31/31
f 15/33/33 32/22/22 34/28/28 19/41/41
f 5/2/2 27/8/8 29/26/26 9/3/3
f 7/13/13 28/18/18 30/19/19 11/23/23
f 11/23/23 30/19/19 32/22/22 15/33/33
f 53/12/12 54/15/15 28/18/18 7/13/13
f 51/10/10 55/5/5 27/8/8 5/2/2
f 22/49/48 47/52/47 49/53/43 35/50/49
f 18/39/39 45/54/42 47/52/47 22/49/48
f 35/50/49 49/55/43 48/38/38 21/37/37
f 14/29/29 43/56/34 45/54/42 18/39/39
f 16/21/21 44/32/32 46/35/35 20/27/27
f 20/27/27 46/35/35 48/46/38 24/45/45
f 10/25/25 41/57/24 43/56/34 14/29/29
f 12/20/20 42/4/4 44/32/32 16/21/21
f 6/7/7 39/58/14 41/57/24 10/25/25
f 50/6/6 56/59/11 39/58/14 6/7/7
f 52/16/16 57/9/9 40/1/1 8/17/17
f 8/17/17 40/1/1 42/4/4 12/20/20
f 4/60/50 38/61/51 57/9/9 52/16/16
f 1/62/52 37/63/53 56/59/11 50/6/6
f 3/64/54 25/65/55 55/5/5 51/10/10
f 2/66/56 26/67/57 54/15/15 53/12/12
f 26/67/57 4/60/50 52/16/16 54/15/15
f 37/68/53 2/66/56 53/12/12 56/11/11
f 38/61/51 3/64/54 51/10/10 57/9/9
f 25/65/55 1/62/52 50/6/6 55/5/5
