# Blender v2.93.4 OBJ File: 'decidit.blend'
# www.blender.org
mtllib SM_Mushroom_02.mtl
o Plane.003_Plane.011
v -0.034479 0.002209 0.015825
v -0.001208 0.002209 0.015825
v -0.034479 0.002209 -0.017446
v -0.001208 0.002209 -0.017446
v -0.040679 0.085422 -0.023646
v -0.040679 0.085422 0.022025
v 0.004992 0.085422 0.022025
v 0.004992 0.085422 -0.023646
v -0.038365 0.116869 -0.021332
v -0.038365 0.116869 0.019710
v 0.002677 0.116869 0.019710
v 0.002677 0.116869 -0.021332
v -0.026958 0.133678 -0.009925
v -0.026958 0.133678 0.008304
v -0.008729 0.133678 0.008304
v -0.008729 0.133678 -0.009925
v -0.040335 0.002209 -0.000811
v 0.004647 0.002209 -0.000811
v -0.048717 0.085422 -0.000811
v 0.013029 0.085422 -0.000811
v -0.045588 0.116869 -0.000811
v 0.009900 0.116869 -0.000811
v -0.030166 0.133678 -0.000811
v -0.005521 0.133678 -0.000811
v -0.017844 0.002209 0.021597
v -0.017844 0.002209 -0.023218
v -0.017844 0.085422 0.029948
v -0.017844 0.085422 -0.031570
v -0.017844 0.116869 0.026830
v -0.017844 0.116869 -0.028452
v -0.017844 0.133678 0.011466
v -0.017844 0.133678 -0.013088
v -0.017844 0.136645 -0.000811
vt 0.652049 0.675317
vt 0.649047 0.715740
vt 0.473777 0.707590
vt 0.470492 0.660948
vt 0.461736 0.603313
vt 0.657156 0.633982
vt 0.647824 0.836596
vt 0.649038 0.876952
vt 0.473767 0.885083
vt 0.474341 0.840840
vt 0.647828 0.756096
vt 0.474346 0.751833
vt 0.472706 0.796337
vt 0.646982 0.796346
vt 0.418434 0.750570
vt 0.417722 0.712467
vt 0.403736 0.796333
vt 0.418429 0.842098
vt 0.372251 0.853391
vt 0.359498 0.834711
vt 0.470478 0.931726
vt 0.411306 0.918455
vt 0.417714 0.880200
vt 0.411319 0.674212
vt 0.385486 0.633166
vt 0.342803 0.730892
vt 0.371366 0.717280
vt 0.372257 0.739272
vt 0.359502 0.757950
vt 0.367678 0.695574
vt 0.351179 0.680170
vt 0.367667 0.897088
vt 0.371358 0.875383
vt 0.340707 0.710024
vt 0.652036 0.917375
vt 0.657139 0.958710
vt 0.461715 0.989359
vt 0.351166 0.912490
vt 0.340698 0.882635
vt 0.385469 0.959498
vt 0.342796 0.861768
vn 0.7016 -0.1048 0.7048
vn 0.9950 -0.1002 0.0000
vn 1.0000 -0.0006 0.0000
vn 0.7056 -0.0006 0.7086
vn 0.0000 -0.0006 1.0000
vn 0.0000 -0.0999 0.9950
vn -0.7016 -0.1048 -0.7048
vn -0.9950 -0.1002 0.0000
vn -1.0000 -0.0006 0.0000
vn -0.7056 -0.0006 -0.7086
vn 0.7016 -0.1048 -0.7048
vn 0.7056 -0.0006 -0.7086
vn 0.0000 -0.0006 -1.0000
vn 0.0000 -0.0999 -0.9950
vn 0.6498 0.3898 -0.6525
vn 0.9227 0.3854 0.0000
vn 0.0000 0.3848 -0.9230
vn -0.6498 0.3898 -0.6525
vn -0.3883 0.8348 -0.3903
vn 0.0000 0.8498 -0.5271
vn -0.7056 -0.0006 0.7086
vn -0.6498 0.3898 0.6525
vn -0.9227 0.3854 0.0000
vn 0.6498 0.3898 0.6525
vn 0.0000 0.3848 0.9230
vn 0.0000 1.0000 0.0000
vn 0.5266 0.8501 0.0000
vn 0.3883 0.8348 -0.3903
vn 0.3883 0.8348 0.3903
vn 0.0000 0.8498 0.5271
vn -0.3883 0.8348 0.3903
vn -0.5266 0.8501 0.0000
vn -0.7016 -0.1048 0.7048
usemtl None
s 1
f 2/1/1 18/2/2 20/3/3 7/4/4
f 7/4/4 27/5/5 25/6/6 2/1/1
f 3/7/7 17/8/8 19/9/9 5/10/10
f 18/2/2 4/11/11 8/12/12 20/3/3
f 5/10/10 28/13/13 26/14/14 3/7/7
f 20/3/3 8/12/12 12/15/15 22/16/16
f 30/17/17 9/18/18 13/19/19 32/20/20
f 19/9/9 6/21/21 10/22/22 21/23/23
f 28/13/13 5/10/10 9/18/18 30/17/17
f 27/5/5 7/4/4 11/24/24 29/25/25
f 33/26/26 24/27/27 16/28/28 32/29/20
f 29/25/25 11/24/24 15/30/29 31/31/30
f 22/16/16 12/15/15 16/28/28 24/27/27
f 21/23/23 10/22/22 14/32/31 23/33/32
f 9/18/18 21/23/23 23/33/32 13/19/19
f 11/24/24 22/16/16 24/27/27 15/30/29
f 31/31/30 15/30/29 24/27/27 33/34/26
f 5/10/10 19/9/9 21/23/23 9/18/18
f 1/35/33 25/36/6 27/37/5 6/21/21
f 7/4/4 20/3/3 22/16/16 11/24/24
f 4/11/11 26/14/14 28/13/13 8/12/12
f 14/32/31 31/38/30 33/39/26 23/33/32
f 10/22/22 29/40/25 31/38/30 14/32/31
f 23/33/32 33/41/26 32/20/20 13/19/19
f 6/21/21 27/37/5 29/40/25 10/22/22
f 8/12/12 28/13/13 30/17/17 12/15/15
f 12/15/15 30/17/17 32/29/20 16/28/28
f 6/21/21 19/9/9 17/8/8 1/35/33
