# Blender v2.93.4 OBJ File: 'decidit.blend'
# www.blender.org
mtllib SM_Mushroom_03.mtl
o Plane.002_Plane.010
v -0.038496 0.003615 0.017741
v 0.002280 0.003615 0.017741
v -0.038496 0.003615 -0.023034
v 0.002280 0.003615 -0.023034
v -0.040716 0.129308 -0.025255
v -0.040716 0.129308 0.019962
v 0.004500 0.129308 0.019962
v 0.004500 0.129308 -0.025255
v -0.044812 0.197163 -0.029350
v -0.044812 0.197163 0.024058
v 0.008596 0.197163 0.024058
v 0.008596 0.197163 -0.029350
v -0.046852 0.223111 -0.031391
v -0.046852 0.223111 0.026098
v 0.010636 0.223111 0.026098
v 0.010636 0.223111 -0.031391
v -0.041966 0.246913 -0.026505
v -0.041966 0.246913 0.021212
v 0.005750 0.246913 0.021212
v 0.005750 0.246913 -0.026505
v -0.029581 0.268071 -0.014119
v -0.029581 0.268071 0.008826
v -0.006635 0.268071 0.008826
v -0.006635 0.268071 -0.014119
v -0.045671 0.003615 -0.002646
v 0.009455 0.003615 -0.002646
v -0.048674 0.129308 -0.002646
v 0.012458 0.129308 -0.002646
v -0.054211 0.197163 -0.002646
v 0.017995 0.197163 -0.002646
v -0.056970 0.223111 -0.002646
v 0.020754 0.223111 -0.002646
v -0.050364 0.246913 -0.002646
v 0.014148 0.246913 -0.002646
v -0.033619 0.268071 -0.002646
v -0.002597 0.268071 -0.002646
v -0.018108 0.003615 0.024815
v -0.018108 0.003615 -0.030108
v -0.018108 0.129308 0.027806
v -0.018108 0.129308 -0.033099
v -0.018108 0.197163 0.033323
v -0.018108 0.197163 -0.038616
v -0.018108 0.223111 0.036071
v -0.018108 0.223111 -0.041364
v -0.018108 0.246913 0.029490
v -0.018108 0.246913 -0.034783
v -0.018108 0.268071 0.012807
v -0.018108 0.268071 -0.018100
v -0.018108 0.271806 -0.002646
v -0.038915 0.057801 0.018161
v -0.038915 0.057801 -0.023454
v 0.002699 0.057801 -0.023454
v 0.002699 0.057801 0.018161
v 0.010023 0.057801 -0.002646
v -0.046239 0.057801 -0.002646
v -0.018108 0.057801 0.025380
v -0.018108 0.057801 -0.030673
vt 0.830439 0.782694
vt 0.792413 0.782951
vt 0.792923 0.682646
vt 0.830439 0.682611
vt 0.757332 0.900335
vt 0.720795 0.901617
vt 0.715219 0.783759
vt 0.754082 0.782983
vt 0.830439 0.899376
vt 0.793913 0.899656
vt 0.976488 0.903501
vt 0.940082 0.901617
vt 0.945658 0.783759
vt 0.985194 0.785509
vt 0.903545 0.900335
vt 0.866964 0.899656
vt 0.868464 0.782951
vt 0.906795 0.782983
vt 0.905857 0.680731
vt 0.867954 0.682646
vt 0.867316 0.650106
vt 0.902606 0.647881
vt 0.946102 0.677026
vt 0.991680 0.671527
vt 0.714775 0.677026
vt 0.755020 0.680731
vt 0.867379 0.620260
vt 0.898072 0.618184
vt 0.721898 0.640848
vt 0.758271 0.647881
vt 0.793561 0.650106
vt 0.830439 0.648938
vt 0.938979 0.640848
vt 0.984975 0.625256
vt 0.830439 0.612292
vt 0.793498 0.620260
vt 0.787770 0.583259
vt 0.804365 0.574089
vt 0.732167 0.610489
vt 0.762805 0.618184
vt 0.928710 0.610489
vt 0.960554 0.587822
vt 0.877853 0.557987
vt 0.891475 0.580889
vt 0.873107 0.583259
vt 0.856512 0.574089
vt 0.909638 0.576687
vt 0.921856 0.561942
vt 0.751239 0.576687
vt 0.769402 0.580890
vt 0.896075 0.554586
vt 0.739021 0.561942
vt 0.764802 0.554586
vt 0.700323 0.587822
vt 0.783024 0.557987
vt 0.675903 0.625256
vt 0.669197 0.671527
vt 0.675682 0.785509
vt 0.684389 0.903501
vt 0.865815 0.989097
vt 0.830438 0.988910
vt 0.724166 0.990979
vt 0.688690 0.992570
vt 0.795062 0.989097
vt 0.759628 0.989853
vt 0.936711 0.990979
vt 0.901250 0.989853
vt 0.972187 0.992570
vn 0.0000 -0.0578 -0.9983
vn -0.7042 -0.0607 -0.7074
vn -0.7021 -0.0981 -0.7053
vn 0.0000 -0.0934 -0.9956
vn -0.9997 -0.0223 0.0000
vn -0.7053 -0.0233 0.7085
vn -0.7042 -0.0607 0.7074
vn -0.9983 -0.0580 0.0000
vn 0.0000 -0.0222 -0.9997
vn -0.7053 -0.0233 -0.7085
vn 0.0000 -0.0222 0.9997
vn 0.7053 -0.0233 0.7085
vn 0.7042 -0.0607 0.7074
vn 0.0000 -0.0578 0.9983
vn 0.9997 -0.0223 0.0000
vn 0.7053 -0.0233 -0.7085
vn 0.7042 -0.0607 -0.7074
vn 0.9983 -0.0580 0.0000
vn 0.9956 -0.0938 0.0000
vn 0.7021 -0.0981 -0.7053
vn 0.7032 0.0815 -0.7062
vn 0.9968 0.0792 0.0000
vn 0.7021 -0.0981 0.7053
vn 0.0000 -0.0934 0.9956
vn -0.7021 -0.0981 0.7053
vn -0.9956 -0.0938 0.0000
vn 0.6314 0.4461 -0.6342
vn 0.8995 0.4368 0.0000
vn -0.7032 0.0815 0.7062
vn -0.9968 0.0792 0.0000
vn -0.7032 0.0815 -0.7062
vn 0.0000 0.0790 -0.9969
vn 0.7032 0.0815 0.7062
vn 0.0000 0.0790 0.9969
vn 0.0000 0.4358 -0.9000
vn -0.6314 0.4461 -0.6342
vn -0.4129 0.8107 -0.4151
vn 0.0000 0.8276 -0.5613
vn -0.6314 0.4461 0.6342
vn -0.8995 0.4368 0.0000
vn 0.6314 0.4461 0.6342
vn 0.0000 0.4358 0.9000
vn 0.0000 1.0000 0.0000
vn 0.5609 0.8279 0.0000
vn 0.4129 0.8107 -0.4151
vn 0.4129 0.8107 0.4151
vn 0.0000 0.8276 0.5613
vn -0.4129 0.8107 0.4151
vn -0.5609 0.8279 0.0000
vn 0.7055 -0.0109 -0.7086
vn 0.0000 -0.0104 -0.9999
vn -0.7055 -0.0109 0.7086
vn 0.0000 -0.0104 0.9999
vn -0.7055 -0.0109 -0.7086
vn -0.9999 -0.0104 0.0000
vn 0.7055 -0.0109 0.7086
vn 0.9999 -0.0104 0.0000
usemtl None
s 1
f 40/1/1 5/2/2 9/3/3 42/4/4
f 55/5/5 50/6/6 6/7/7 27/8/8
f 57/9/9 51/10/10 5/2/2 40/1/1
f 56/11/11 53/12/12 7/13/13 39/14/14
f 54/15/15 52/16/16 8/17/17 28/18/18
f 30/19/19 12/20/20 16/21/21 32/22/22
f 39/14/14 7/13/13 11/23/23 41/24/24
f 28/18/18 8/17/17 12/20/20 30/19/19
f 27/8/8 6/7/7 10/25/25 29/26/26
f 32/22/22 16/21/21 20/27/27 34/28/28
f 29/26/26 10/25/25 14/29/29 31/30/30
f 42/4/4 9/3/3 13/31/31 44/32/32
f 41/24/24 11/23/23 15/33/33 43/34/34
f 46/35/35 17/36/36 21/37/37 48/38/38
f 31/30/30 14/29/29 18/39/39 33/40/40
f 44/32/32 13/31/31 17/36/36 46/35/35
f 43/34/34 15/33/33 19/41/41 45/42/42
f 49/43/43 36/44/44 24/45/45 48/46/38
f 45/42/42 19/41/41 23/47/46 47/48/47
f 34/28/28 20/27/27 24/45/45 36/44/44
f 33/40/40 18/39/39 22/49/48 35/50/49
f 17/36/36 33/40/40 35/50/49 21/37/37
f 19/41/41 34/28/28 36/44/44 23/47/46
f 47/48/47 23/47/46 36/44/44 49/51/43
f 13/31/31 31/30/30 33/40/40 17/36/36
f 9/3/3 29/26/26 31/30/30 13/31/31
f 15/33/33 32/22/22 34/28/28 19/41/41
f 5/2/2 27/8/8 29/26/26 9/3/3
f 7/13/13 28/18/18 30/19/19 11/23/23
f 11/23/23 30/19/19 32/22/22 15/33/33
f 53/12/12 54/15/15 28/18/18 7/13/13
f 51/10/10 55/5/5 27/8/8 5/2/2
f 22/49/48 47/52/47 49/53/43 35/50/49
f 18/39/39 45/54/42 47/52/47 22/49/48
f 35/50/49 49/55/43 48/38/38 21/37/37
f 14/29/29 43/56/34 45/54/42 18/39/39
f 16/21/21 44/32/32 46/35/35 20/27/27
f 20/27/27 46/35/35 48/46/38 24/45/45
f 10/25/25 41/57/24 43/56/34 14/29/29
f 12/20/20 42/4/4 44/32/32 16/21/21
f 6/7/7 39/58/14 41/57/24 10/25/25
f 50/6/6 56/59/11 39/58/14 6/7/7
f 52/16/16 57/9/9 40/1/1 8/17/17
f 8/17/17 40/1/1 42/4/4 12/20/20
f 4/60/50 38/61/51 57/9/9 52/16/16
f 1/62/52 37/63/53 56/59/11 50/6/6
f 3/64/54 25/65/55 55/5/5 51/10/10
f 2/66/56 26/67/57 54/15/15 53/12/12
f 26/67/57 4/60/50 52/16/16 54/15/15
f 37/68/53 2/66/56 53/12/12 56/11/11
f 38/61/51 3/64/54 51/10/10 57/9/9
f 25/65/55 1/62/52 50/6/6 55/5/5
