# Blender 3.5.0
# www.blender.org
mtllib SM_Filament_Large.mtl
o filament_02_low
v 2.413734 1.912809 0.668836
v 1.578255 0.858057 0.668836
v 2.413733 2.143730 -0.793189
v 1.578255 1.528152 -0.793189
v 0.930979 0.218478 0.668836
v 0.930978 1.125371 -0.793189
v 0.178039 -0.077519 0.668836
v 0.178039 1.086324 -0.793189
v -0.532215 0.317844 0.668836
v -0.532216 1.270081 -0.793189
v -1.076627 0.953224 0.668836
v -1.076628 1.693855 -0.793189
v -1.516775 1.755147 0.668837
v -1.516776 2.181586 -0.793189
v -1.991211 2.913946 0.668837
v -1.991212 3.026468 -0.793189
v 1.578255 1.025999 0.237384
v 1.578255 -0.389668 0.668836
v 0.930979 -0.186598 0.668836
v 0.178039 -0.703103 0.668836
v -0.532216 -0.852544 0.668836
v -1.076627 -0.122948 0.668836
v 2.413733 1.912809 0.227665
v 0.930979 0.659326 0.115898
v 0.178039 0.594249 -0.039449
v -0.532216 0.706210 0.152344
v -1.076628 1.156154 0.152344
v -1.516775 1.755147 0.152344
v -1.991211 2.913947 0.152344
v 1.578255 1.453415 -0.363361
v 0.930979 1.012533 -0.430538
v 0.178039 1.016625 -0.430538
v -0.532216 1.164485 -0.430538
v -1.076628 1.601344 -0.430538
v -1.516776 2.144706 -0.430538
v -1.991211 2.970207 -0.430538
v 2.413734 2.028269 -0.494971
v 1.578255 0.440160 -0.363361
v -1.076627 0.627137 0.152344
v -1.516775 0.732380 0.152344
vn -0.5198 0.7807 0.3467
vn -0.5376 0.8279 0.1602
vn -0.4351 0.6250 0.6481
vn -0.3768 0.7635 0.5245
vn -0.3871 0.4069 0.8274
vn -0.6206 0.7006 0.3523
vn 0.0804 0.7351 0.6731
vn -0.1945 0.3497 0.9165
vn 0.2425 0.3492 0.9051
vn 0.0167 0.2937 0.9557
vn 0.4111 0.6648 0.6237
vn 0.4406 0.3575 0.8234
vn 0.5371 0.4841 0.6908
vn 0.8777 0.4632 0.1229
vn 0.9060 0.4189 0.0613
vn 0.8266 0.4912 0.2746
vn -0.0000 -0.0000 1.0000
vn 0.8302 0.5304 0.1715
vn -0.7171 0.6509 0.2493
vn 0.6779 0.6615 0.3206
vn 0.4073 0.8108 0.4204
vn 0.1175 0.8741 0.4713
vn -0.3089 0.7573 0.5754
vn -0.3252 0.9084 0.2629
vn 0.1029 0.9706 0.2175
vn 0.4475 0.8598 0.2457
vn 0.6937 0.7018 0.1620
vn 0.8116 0.5808 0.0622
vn 0.8675 0.4938 0.0599
vn -0.6663 0.7340 0.1314
vn -0.0087 -0.0000 1.0000
vn 0.4111 0.6648 0.6238
vn -0.5663 0.7686 0.2976
vn 0.9254 0.3789 -0.0000
vn 0.8694 0.4882 0.0757
vt 0.430623 0.000079
vt 0.295178 0.171996
vt 0.633894 0.106930
vt 0.550807 0.245026
vt 0.207962 0.301198
vt 0.497703 0.351461
vt 0.155344 0.431832
vt 0.478381 0.466403
vt 0.188007 0.569793
vt 0.487064 0.578833
vt 0.249026 0.706095
vt 0.521281 0.680036
vt 0.333074 0.832390
vt 0.564042 0.772326
vt 0.428843 0.999921
vt 0.633894 0.905354
vt 0.368656 0.197664
vt 0.098027 0.213957
vt 0.142298 0.306174
vt 0.053055 0.415847
vt 0.007892 0.514264
vt 0.087632 0.625164
vt 0.485997 0.041486
vt 0.328138 0.318506
vt 0.323561 0.450925
vt 0.628090 0.325914
vt 0.300316 0.576356
vt 0.343422 0.688256
vt 0.614379 0.433841
vt 0.402047 0.792332
vt 0.628090 0.547517
vt 0.497946 0.960418
vt 0.862298 0.801288
vt 0.487098 0.217784
vt 0.979495 0.770871
vt 0.437652 0.337600
vt 0.420491 0.462718
vt 0.426423 0.583636
vt 0.463516 0.692364
vt 0.511015 0.793341
vt 0.580427 0.924837
vt 0.709764 0.840633
vt 0.586844 0.091034
vt 0.979495 0.904370
vt 0.558609 0.374425
vt 0.520269 0.432646
s 1
f 37/43/1 4/4/2 30/34/3
f 24/24/4 2/2/5 17/17/6
f 25/25/7 5/5/8 24/24/4
f 25/25/7 9/9/9 7/7/10
f 26/27/11 11/11/12 9/9/9
f 27/28/13 13/13/14 11/11/12
f 29/32/15 13/13/14 28/30/16
f 21/21/17 20/20/17 7/7/10
f 35/40/18 29/32/15 28/30/16
f 5/5/8 19/19/17 18/18/17
f 22/22/17 21/21/17 9/9/9
f 2/2/5 18/18/17 1/1/19
f 7/7/10 20/20/17 19/19/17
f 13/13/14 22/22/17 11/11/12
f 34/39/20 28/30/16 27/28/13
f 33/38/21 27/28/13 26/27/11
f 32/37/22 26/27/11 25/25/7
f 31/36/23 25/25/7 24/24/4
f 31/36/23 17/17/6 30/34/3
f 1/1/19 17/17/6 2/2/5
f 6/6/24 30/34/3 4/4/2
f 8/8/25 31/36/23 6/6/24
f 8/8/25 33/38/21 32/37/22
f 10/10/26 34/39/20 33/38/21
f 12/12/27 35/40/18 34/39/20
f 14/14/28 36/41/29 35/40/18
f 23/23/30 30/34/3 17/17/6
f 37/42/1 30/33/3 38/44/31
f 31/35/23 38/44/31 30/33/3
f 40/46/17 39/45/17 27/29/13
f 27/29/13 39/45/17 26/26/32
f 5/5/8 7/7/10 19/19/17
f 11/11/12 22/22/17 9/9/9
f 2/2/5 5/5/8 18/18/17
f 9/9/9 21/21/17 7/7/10
f 37/43/1 3/3/33 4/4/2
f 24/24/4 5/5/8 2/2/5
f 25/25/7 7/7/10 5/5/8
f 25/25/7 26/27/11 9/9/9
f 26/27/11 27/28/13 11/11/12
f 27/28/13 28/30/16 13/13/14
f 29/32/15 15/15/34 13/13/14
f 35/40/18 36/41/29 29/32/15
f 34/39/20 35/40/18 28/30/16
f 33/38/21 34/39/20 27/28/13
f 32/37/22 33/38/21 26/27/11
f 31/36/23 32/37/22 25/25/7
f 31/36/23 24/24/4 17/17/6
f 1/1/19 23/23/30 17/17/6
f 6/6/24 31/36/23 30/34/3
f 8/8/25 32/37/22 31/36/23
f 8/8/25 10/10/26 33/38/21
f 10/10/26 12/12/27 34/39/20
f 12/12/27 14/14/28 35/40/18
f 14/14/28 16/16/35 36/41/29
f 23/23/30 37/43/1 30/34/3
f 28/31/16 40/46/17 27/29/13
