# Blender v3.1.2 OBJ File: ''
# www.blender.org
mtllib SM_PlaneTriangle_Slo_Mur_6x6.mtl
o Plane_Sol_Mur6
v 1.425217 -0.000183 0.282795
v 1.710932 -0.000183 0.282795
v 1.710932 -0.000183 -0.002920
v 1.425217 -0.000183 -0.002920
v 3.139504 -0.000183 0.282795
v 3.425218 -0.000183 0.282795
v 3.425218 -0.000183 -0.002920
v 3.139504 -0.000183 -0.002920
v 4.853788 -0.000183 0.282795
v 5.139504 -0.000183 0.282795
v 5.139504 -0.000183 -0.002920
v 4.853788 -0.000183 -0.002920
v 1.425217 -0.000184 1.997080
v 1.710932 -0.000184 1.997080
v 1.710932 -0.000184 1.711366
v 1.425217 -0.000184 1.711366
v 2.568074 -0.000184 1.688841
v 2.282360 -0.000184 1.711366
v 0.568074 -0.000184 1.997080
v 0.853788 -0.000184 1.997080
v 0.853788 -0.000184 1.711366
v 0.568074 -0.000184 1.711366
v 0.853788 -0.000184 2.568509
v 0.568074 -0.000184 2.568509
v 5.710933 -0.000183 -0.002920
v 3.996646 -0.000183 0.282795
v 4.282359 -0.000183 0.282795
v 4.282359 -0.000183 -0.002920
v 3.996646 -0.000183 -0.002920
v 4.282359 -0.000184 0.814805
v 3.996646 -0.000184 0.854223
v 2.282360 -0.000183 0.282795
v 2.568074 -0.000183 0.282795
v 2.568074 -0.000183 -0.002920
v 2.282360 -0.000183 -0.002920
v 2.282360 -0.000184 1.139937
v 2.568074 -0.000184 1.139937
v 2.568074 -0.000184 0.854223
v 2.282360 -0.000184 0.854223
v 3.139504 -0.000184 1.139937
v 3.425218 -0.000184 1.139937
v 3.425218 -0.000184 0.854223
v 3.139504 -0.000184 0.854223
v 0.568074 -0.000183 0.282795
v 0.853788 -0.000183 0.282795
v 0.853788 -0.000183 -0.002920
v 0.568074 -0.000183 -0.002920
v 0.568074 -0.000184 1.139937
v 0.853788 -0.000184 1.139937
v 0.853788 -0.000184 0.854223
v 0.568074 -0.000184 0.854223
v 1.425217 -0.000184 1.139937
v 1.710932 -0.000184 1.139937
v 1.710932 -0.000184 0.854223
v 1.425217 -0.000184 0.854223
v 1.139503 -0.000184 1.139937
v 1.139503 -0.000184 0.854223
v 1.139503 -0.000184 1.711366
v 1.139503 -0.000184 1.425651
v 0.853788 -0.000184 1.425651
v 1.425217 -0.000184 1.425651
v 1.710932 -0.000184 1.425651
v -0.003354 -0.000184 1.139937
v 0.282361 -0.000184 1.139937
v 0.282361 -0.000184 0.854223
v -0.003354 -0.000184 0.854223
v -0.003354 -0.000184 1.711366
v 0.282361 -0.000184 1.711366
v 0.282361 -0.000184 1.425651
v -0.003354 -0.000184 1.425652
v 0.568074 -0.000184 1.425651
v -0.003354 -0.000183 0.282794
v 0.282361 -0.000183 0.282795
v 0.282361 -0.000183 -0.002920
v -0.003354 -0.000183 -0.002920
v 0.282361 -0.000183 0.568509
v -0.003354 -0.000183 0.568509
v 0.568074 -0.000183 0.568509
v 0.853788 -0.000183 0.568509
v 2.853789 -0.000184 1.139937
v 2.853789 -0.000184 0.854223
v 2.853789 -0.000184 1.425651
v 2.568074 -0.000184 1.425651
v 3.139504 -0.000184 1.397495
v 1.996646 -0.000184 1.139937
v 1.996646 -0.000184 0.854223
v 1.996646 -0.000184 1.711366
v 1.996646 -0.000184 1.425651
v 2.282360 -0.000184 1.425651
v 1.996646 -0.000183 0.282795
v 1.996646 -0.000183 -0.002920
v 1.996646 -0.000183 0.568509
v 1.710932 -0.000183 0.568509
v 2.282360 -0.000183 0.568509
v 2.568074 -0.000183 0.568509
v 3.710933 -0.000184 1.106149
v 3.710933 -0.000184 0.854223
v 3.710933 -0.000183 0.282795
v 3.710933 -0.000183 -0.002920
v 3.710933 -0.000183 0.568509
v 3.425218 -0.000183 0.568509
v 3.996646 -0.000183 0.568509
v 4.282359 -0.000183 0.568509
v 5.425218 -0.000183 0.232112
v 5.425218 -0.000183 -0.002920
v -0.003354 -0.000184 2.854223
v 0.282361 -0.000184 2.854224
v 0.282361 -0.000184 2.568509
v -0.003354 -0.000184 2.568509
v -0.003354 -0.000184 1.997080
v 0.282361 -0.000184 1.997080
v 0.282361 -0.000184 2.282794
v -0.003354 -0.000184 2.282794
v 0.568074 -0.000184 2.282794
v 0.853788 -0.000184 2.282794
v 1.996646 -0.000184 1.980188
v 1.139503 -0.000184 1.997080
v 1.139503 -0.000184 2.282794
v 4.568074 -0.000183 0.282795
v 4.568074 -0.000183 -0.002920
v 4.568074 -0.000183 0.568509
v 4.853788 -0.000183 0.523459
v 2.853789 -0.000183 0.282795
v 2.853789 -0.000183 -0.002920
v 2.853789 -0.000183 0.568509
v 3.139504 -0.000183 0.568509
v 1.139503 -0.000183 0.282795
v 1.139503 -0.000183 -0.002920
v 1.139503 -0.000183 0.568509
v 1.425217 -0.000183 0.568509
v 5.325811 -0.000183 0.282795
v 2.523897 -0.000184 1.711366
v 3.644663 -0.000184 1.139937
v 5.886197 -0.000183 -0.002920
v 2.282360 -0.000184 1.834514
v 1.710932 -0.000184 2.125859
v 1.403131 -0.000184 2.282794
v 3.084281 -0.000184 1.425651
v 3.996646 -0.000184 0.960478
v 4.205047 -0.000184 0.854223
v 0.568074 -0.000184 2.708551
v 5.139504 -0.000183 0.377785
v 4.568074 -0.000184 0.669131
v 2.853789 -0.000184 1.543168
v 1.139503 -0.000184 2.417206
v 3.425218 -0.000184 1.251822
v 1.963515 -0.000184 1.997080
v -0.003354 -0.000184 3.001878
v 5.710933 -0.000183 0.086439
v 4.765429 -0.000183 0.568509
vt 0.461684 0.757403
vt 0.461684 0.708898
vt 0.510189 0.708898
vt 0.510189 0.757403
vt 0.461684 0.466372
vt 0.461684 0.417867
vt 0.510189 0.417867
vt 0.510189 0.466372
vt 0.461684 0.175341
vt 0.461684 0.126836
vt 0.510189 0.126836
vt 0.510189 0.175341
vt 0.170654 0.757403
vt 0.170653 0.708898
vt 0.219159 0.708898
vt 0.219159 0.757403
vt 0.170654 0.902918
vt 0.170654 0.854413
vt 0.219159 0.854413
vt 0.219159 0.902918
vt 0.461684 0.320857
vt 0.461684 0.272352
vt 0.510189 0.272352
vt 0.510189 0.320857
vt 0.461684 0.611887
vt 0.461684 0.563382
vt 0.510189 0.563382
vt 0.510189 0.611887
vt 0.316169 0.611888
vt 0.316169 0.563382
vt 0.364674 0.563382
vt 0.364674 0.611888
vt 0.316169 0.466372
vt 0.316169 0.417867
vt 0.364674 0.417867
vt 0.364674 0.466372
vt 0.461684 0.902918
vt 0.461684 0.854413
vt 0.510189 0.854413
vt 0.510189 0.902918
vt 0.316169 0.902918
vt 0.316169 0.854413
vt 0.364674 0.854413
vt 0.364674 0.902918
vt 0.316169 0.757403
vt 0.316169 0.708898
vt 0.364674 0.708898
vt 0.364674 0.757403
vt 0.316169 0.805908
vt 0.364674 0.805908
vt 0.219159 0.805908
vt 0.267664 0.805908
vt 0.267664 0.854413
vt 0.267664 0.757403
vt 0.267664 0.708898
vt 0.316169 0.999928
vt 0.316169 0.951423
vt 0.364674 0.951423
vt 0.364674 0.999928
vt 0.219159 0.999928
vt 0.219159 0.951423
vt 0.267664 0.951423
vt 0.267664 0.999928
vt 0.267664 0.902918
vt 0.461684 0.999928
vt 0.461684 0.951423
vt 0.510189 0.951423
vt 0.510189 0.999928
vt 0.413179 0.951423
vt 0.413179 0.999928
vt 0.413179 0.902918
vt 0.413179 0.854413
vt 0.316169 0.514877
vt 0.364674 0.514877
vt 0.267664 0.563383
vt 0.267664 0.514877
vt 0.267664 0.475747
vt 0.272444 0.466372
vt 0.316169 0.660393
vt 0.364674 0.660393
vt 0.219159 0.660393
vt 0.267664 0.660393
vt 0.219159 0.611888
vt 0.267664 0.611888
vt 0.219158 0.570882
vt 0.222982 0.563383
vt 0.461684 0.660393
vt 0.510189 0.660392
vt 0.413179 0.660393
vt 0.413179 0.708898
vt 0.413179 0.611887
vt 0.413179 0.563382
vt 0.316169 0.380612
vt 0.321905 0.369362
vt 0.364674 0.369362
vt 0.461684 0.369362
vt 0.510189 0.369362
vt 0.413179 0.369362
vt 0.413179 0.417867
vt 0.364674 0.320857
vt 0.413179 0.320857
vt 0.364674 0.285477
vt 0.371366 0.272352
vt 0.413179 0.272352
vt 0.461684 0.095207
vt 0.470288 0.078331
vt 0.510189 0.078331
vt 0.025138 0.999929
vt 0.025138 0.951423
vt 0.073643 0.951423
vt 0.073644 0.999928
vt 0.049869 0.902918
vt 0.073643 0.902918
vt 0.170654 0.999928
vt 0.170654 0.951423
vt 0.122149 0.951423
vt 0.122149 0.999928
vt 0.122149 0.902918
vt 0.073643 0.854413
vt 0.122149 0.854413
vt 0.170653 0.666017
vt 0.173521 0.660393
vt 0.170654 0.805908
vt 0.099330 0.805908
vt 0.122149 0.805908
vt 0.122148 0.761153
vt 0.461684 0.223847
vt 0.510189 0.223847
vt 0.413179 0.223847
vt 0.413179 0.190342
vt 0.420827 0.175341
vt 0.461684 0.514877
vt 0.510189 0.514877
vt 0.413179 0.514877
vt 0.413179 0.466372
vt 0.461684 0.805908
vt 0.510189 0.805908
vt 0.413179 0.805908
vt 0.413179 0.757403
vt 0.247713 0.514877
vt 0.495019 0.029826
vt 0.510189 0.029826
vt 0.510189 0.000071
vt 0.297174 0.417867
vt 0.396096 0.223847
vt 0.148791 0.708898
vt 0.198252 0.611888
vt 0.346635 0.320857
vt 0.445558 0.126836
vt 0.000071 0.999929
vn 0.0000 1.0000 0.0000
usemtl TD_Checker
s 1
f 1/1/1 2/2/1 3/3/1 4/4/1
f 5/5/1 6/6/1 7/7/1 8/8/1
f 9/9/1 10/10/1 11/11/1 12/12/1
f 13/13/1 14/14/1 15/15/1 16/16/1
f 19/17/1 20/18/1 21/19/1 22/20/1
f 26/21/1 27/22/1 28/23/1 29/24/1
f 32/25/1 33/26/1 34/27/1 35/28/1
f 36/29/1 37/30/1 38/31/1 39/32/1
f 40/33/1 41/34/1 42/35/1 43/36/1
f 44/37/1 45/38/1 46/39/1 47/40/1
f 48/41/1 49/42/1 50/43/1 51/44/1
f 52/45/1 53/46/1 54/47/1 55/48/1
f 49/42/1 56/49/1 57/50/1 50/43/1
f 56/49/1 52/45/1 55/48/1 57/50/1
f 21/19/1 58/51/1 59/52/1 60/53/1
f 60/53/1 59/52/1 56/49/1 49/42/1
f 58/51/1 16/16/1 61/54/1 59/52/1
f 59/52/1 61/54/1 52/45/1 56/49/1
f 16/16/1 15/15/1 62/55/1 61/54/1
f 61/54/1 62/55/1 53/46/1 52/45/1
f 63/56/1 64/57/1 65/58/1 66/59/1
f 64/57/1 48/41/1 51/44/1 65/58/1
f 67/60/1 68/61/1 69/62/1 70/63/1
f 70/63/1 69/62/1 64/57/1 63/56/1
f 68/61/1 22/20/1 71/64/1 69/62/1
f 69/62/1 71/64/1 48/41/1 64/57/1
f 22/20/1 21/19/1 60/53/1 71/64/1
f 71/64/1 60/53/1 49/42/1 48/41/1
f 72/65/1 73/66/1 74/67/1 75/68/1
f 73/66/1 44/37/1 47/40/1 74/67/1
f 66/59/1 65/58/1 76/69/1 77/70/1
f 77/70/1 76/69/1 73/66/1 72/65/1
f 65/58/1 51/44/1 78/71/1 76/69/1
f 76/69/1 78/71/1 44/37/1 73/66/1
f 51/44/1 50/43/1 79/72/1 78/71/1
f 78/71/1 79/72/1 45/38/1 44/37/1
f 37/30/1 80/73/1 81/74/1 38/31/1
f 80/73/1 40/33/1 43/36/1 81/74/1
f 83/75/1 82/76/1 80/73/1 37/30/1
f 82/76/1 138/77/1 84/78/1 40/33/1 80/73/1
f 53/46/1 85/79/1 86/80/1 54/47/1
f 85/79/1 36/29/1 39/32/1 86/80/1
f 15/15/1 87/81/1 88/82/1 62/55/1
f 62/55/1 88/82/1 85/79/1 53/46/1
f 87/81/1 18/83/1 89/84/1 88/82/1
f 88/82/1 89/84/1 36/29/1 85/79/1
f 18/83/1 132/85/1 17/86/1 83/75/1 89/84/1
f 89/84/1 83/75/1 37/30/1 36/29/1
f 2/2/1 90/87/1 91/88/1 3/3/1
f 90/87/1 32/25/1 35/28/1 91/88/1
f 54/47/1 86/80/1 92/89/1 93/90/1
f 93/90/1 92/89/1 90/87/1 2/2/1
f 86/80/1 39/32/1 94/91/1 92/89/1
f 92/89/1 94/91/1 32/25/1 90/87/1
f 39/32/1 38/31/1 95/92/1 94/91/1
f 94/91/1 95/92/1 33/26/1 32/25/1
f 41/34/1 133/93/1 96/94/1 97/95/1 42/35/1
f 6/6/1 98/96/1 99/97/1 7/7/1
f 98/96/1 26/21/1 29/24/1 99/97/1
f 42/35/1 97/95/1 100/98/1 101/99/1
f 101/99/1 100/98/1 98/96/1 6/6/1
f 97/95/1 31/100/1 102/101/1 100/98/1
f 100/98/1 102/101/1 26/21/1 98/96/1
f 31/100/1 140/102/1 30/103/1 103/104/1 102/101/1
f 102/101/1 103/104/1 27/22/1 26/21/1
f 10/10/1 131/105/1 104/106/1 105/107/1 11/11/1
f 106/108/1 107/109/1 108/110/1 109/111/1
f 107/109/1 141/112/1 24/113/1 108/110/1
f 110/114/1 111/115/1 68/61/1 67/60/1
f 111/115/1 19/17/1 22/20/1 68/61/1
f 109/111/1 108/110/1 112/116/1 113/117/1
f 113/117/1 112/116/1 111/115/1 110/114/1
f 108/110/1 24/113/1 114/118/1 112/116/1
f 112/116/1 114/118/1 19/17/1 111/115/1
f 24/113/1 23/119/1 115/120/1 114/118/1
f 114/118/1 115/120/1 20/18/1 19/17/1
f 14/14/1 147/121/1 116/122/1 87/81/1 15/15/1
f 20/18/1 117/123/1 58/51/1 21/19/1
f 117/123/1 13/13/1 16/16/1 58/51/1
f 23/119/1 145/124/1 118/125/1 115/120/1
f 115/120/1 118/125/1 117/123/1 20/18/1
f 118/125/1 137/126/1 13/13/1 117/123/1
f 27/22/1 119/127/1 120/128/1 28/23/1
f 119/127/1 9/9/1 12/12/1 120/128/1
f 103/104/1 121/129/1 119/127/1 27/22/1
f 121/129/1 150/130/1 122/131/1 9/9/1 119/127/1
f 33/26/1 123/132/1 124/133/1 34/27/1
f 123/132/1 5/5/1 8/8/1 124/133/1
f 38/31/1 81/74/1 125/134/1 95/92/1
f 95/92/1 125/134/1 123/132/1 33/26/1
f 81/74/1 43/36/1 126/135/1 125/134/1
f 125/134/1 126/135/1 5/5/1 123/132/1
f 43/36/1 42/35/1 101/99/1 126/135/1
f 126/135/1 101/99/1 6/6/1 5/5/1
f 45/38/1 127/136/1 128/137/1 46/39/1
f 127/136/1 1/1/1 4/4/1 128/137/1
f 50/43/1 57/50/1 129/138/1 79/72/1
f 79/72/1 129/138/1 127/136/1 45/38/1
f 57/50/1 55/48/1 130/139/1 129/138/1
f 129/138/1 130/139/1 1/1/1 127/136/1
f 55/48/1 54/47/1 93/90/1 130/139/1
f 130/139/1 93/90/1 2/2/1 1/1/1
f 17/86/1 144/140/1 82/76/1 83/75/1
f 104/106/1 149/141/1 25/142/1 105/107/1
f 141/112/1 23/119/1 24/113/1
f 149/141/1 134/143/1 25/142/1
f 145/124/1 137/126/1 118/125/1
f 84/78/1 146/144/1 41/34/1 40/33/1
f 143/145/1 150/130/1 121/129/1
f 136/146/1 147/121/1 14/14/1
f 135/147/1 132/85/1 18/83/1
f 30/103/1 143/145/1 121/129/1 103/104/1
f 139/148/1 140/102/1 31/100/1
f 116/122/1 135/147/1 18/83/1 87/81/1
f 137/126/1 136/146/1 14/14/1 13/13/1
f 144/140/1 138/77/1 82/76/1
f 142/149/1 131/105/1 10/10/1
f 122/131/1 142/149/1 10/10/1 9/9/1
f 146/144/1 133/93/1 41/34/1
f 148/150/1 107/109/1 106/108/1
f 96/94/1 139/148/1 31/100/1 97/95/1
