# Blender v3.1.2 OBJ File: ''
# www.blender.org
mtllib SM_PlaneTriangle_Slo_Mur_6x6_Left.mtl
o Plane_Sol_Mur6
v 1.425217 -0.000183 0.282795
v 1.710932 -0.000183 0.282795
v 1.710932 -0.000183 -0.002920
v 1.425217 -0.000183 -0.002920
v 3.139504 -0.000183 0.282795
v 3.425218 -0.000183 0.282795
v 3.425218 -0.000183 -0.002920
v 3.139504 -0.000183 -0.002920
v 4.853788 -0.000183 0.282795
v 5.139504 -0.000183 0.282795
v 5.139504 -0.000183 -0.002920
v 4.853788 -0.000183 -0.002920
v 1.425217 -0.000184 1.997080
v 1.710932 -0.000184 1.997080
v 1.710932 -0.000184 1.711366
v 1.425217 -0.000184 1.711366
v 2.568074 -0.000184 1.688841
v 2.282360 -0.000184 1.711366
v 0.568074 -0.000184 1.997080
v 0.853788 -0.000184 1.997080
v 0.853788 -0.000184 1.711366
v 0.568074 -0.000184 1.711366
v 0.853788 -0.000184 2.568509
v 0.568074 -0.000184 2.568509
v 5.710933 -0.000183 -0.002920
v 3.996646 -0.000183 0.282795
v 4.282359 -0.000183 0.282795
v 4.282359 -0.000183 -0.002920
v 3.996646 -0.000183 -0.002920
v 4.282359 -0.000184 0.814805
v 3.996646 -0.000184 0.854223
v 2.282360 -0.000183 0.282795
v 2.568074 -0.000183 0.282795
v 2.568074 -0.000183 -0.002920
v 2.282360 -0.000183 -0.002920
v 2.282360 -0.000184 1.139937
v 2.568074 -0.000184 1.139937
v 2.568074 -0.000184 0.854223
v 2.282360 -0.000184 0.854223
v 3.139504 -0.000184 1.139937
v 3.425218 -0.000184 1.139937
v 3.425218 -0.000184 0.854223
v 3.139504 -0.000184 0.854223
v 0.568074 -0.000183 0.282795
v 0.853788 -0.000183 0.282795
v 0.853788 -0.000183 -0.002920
v 0.568074 -0.000183 -0.002920
v 0.568074 -0.000184 1.139937
v 0.853788 -0.000184 1.139937
v 0.853788 -0.000184 0.854223
v 0.568074 -0.000184 0.854223
v 1.425217 -0.000184 1.139937
v 1.710932 -0.000184 1.139937
v 1.710932 -0.000184 0.854223
v 1.425217 -0.000184 0.854223
v 1.139503 -0.000184 1.139937
v 1.139503 -0.000184 0.854223
v 1.139503 -0.000184 1.711366
v 1.139503 -0.000184 1.425651
v 0.853788 -0.000184 1.425651
v 1.425217 -0.000184 1.425651
v 1.710932 -0.000184 1.425651
v -0.003354 -0.000184 1.139937
v 0.282361 -0.000184 1.139937
v 0.282361 -0.000184 0.854223
v -0.003354 -0.000184 0.854223
v -0.003354 -0.000184 1.711366
v 0.282361 -0.000184 1.711366
v 0.282361 -0.000184 1.425651
v -0.003354 -0.000184 1.425652
v 0.568074 -0.000184 1.425651
v -0.003354 -0.000183 0.282794
v 0.282361 -0.000183 0.282795
v 0.282361 -0.000183 -0.002920
v -0.003354 -0.000183 -0.002920
v 0.282361 -0.000183 0.568509
v -0.003354 -0.000183 0.568509
v 0.568074 -0.000183 0.568509
v 0.853788 -0.000183 0.568509
v 2.853789 -0.000184 1.139937
v 2.853789 -0.000184 0.854223
v 2.853789 -0.000184 1.425651
v 2.568074 -0.000184 1.425651
v 3.139504 -0.000184 1.397495
v 1.996646 -0.000184 1.139937
v 1.996646 -0.000184 0.854223
v 1.996646 -0.000184 1.711366
v 1.996646 -0.000184 1.425651
v 2.282360 -0.000184 1.425651
v 1.996646 -0.000183 0.282795
v 1.996646 -0.000183 -0.002920
v 1.996646 -0.000183 0.568509
v 1.710932 -0.000183 0.568509
v 2.282360 -0.000183 0.568509
v 2.568074 -0.000183 0.568509
v 3.710933 -0.000184 1.106149
v 3.710933 -0.000184 0.854223
v 3.710933 -0.000183 0.282795
v 3.710933 -0.000183 -0.002920
v 3.710933 -0.000183 0.568509
v 3.425218 -0.000183 0.568509
v 3.996646 -0.000183 0.568509
v 4.282359 -0.000183 0.568509
v 5.425218 -0.000183 0.232112
v 5.425218 -0.000183 -0.002920
v -0.003354 -0.000184 2.854223
v 0.282361 -0.000184 2.854224
v 0.282361 -0.000184 2.568509
v -0.003354 -0.000184 2.568509
v -0.003354 -0.000184 1.997080
v 0.282361 -0.000184 1.997080
v 0.282361 -0.000184 2.282794
v -0.003354 -0.000184 2.282794
v 0.568074 -0.000184 2.282794
v 0.853788 -0.000184 2.282794
v 1.996646 -0.000184 1.980188
v 1.139503 -0.000184 1.997080
v 1.139503 -0.000184 2.282794
v 4.568074 -0.000183 0.282795
v 4.568074 -0.000183 -0.002920
v 4.568074 -0.000183 0.568509
v 4.853788 -0.000183 0.523459
v 2.853789 -0.000183 0.282795
v 2.853789 -0.000183 -0.002920
v 2.853789 -0.000183 0.568509
v 3.139504 -0.000183 0.568509
v 1.139503 -0.000183 0.282795
v 1.139503 -0.000183 -0.002920
v 1.139503 -0.000183 0.568509
v 1.425217 -0.000183 0.568509
v 5.325811 -0.000183 0.282795
v 2.523897 -0.000184 1.711366
v 3.644663 -0.000184 1.139937
v 5.886197 -0.000183 -0.002920
v 2.282360 -0.000184 1.834514
v 1.710932 -0.000184 2.125859
v 1.403131 -0.000184 2.282794
v 3.084281 -0.000184 1.425651
v 3.996646 -0.000184 0.960478
v 4.205047 -0.000184 0.854223
v 0.568074 -0.000184 2.708551
v 5.139504 -0.000183 0.377785
v 4.568074 -0.000184 0.669131
v 2.853789 -0.000184 1.543168
v 1.139503 -0.000184 2.417206
v 3.425218 -0.000184 1.251822
v 1.963515 -0.000184 1.997080
v -0.003354 -0.000184 3.001878
v 5.710933 -0.000183 0.086439
v 4.765429 -0.000183 0.568509
vt 0.757403 0.461685
vt 0.757403 0.510190
vt 0.708898 0.510190
vt 0.708898 0.461685
vt 0.466372 0.461684
vt 0.466372 0.510190
vt 0.417867 0.510190
vt 0.417867 0.461684
vt 0.175341 0.461684
vt 0.175341 0.510189
vt 0.126836 0.510189
vt 0.126836 0.461684
vt 0.757403 0.170654
vt 0.757403 0.219159
vt 0.708898 0.219159
vt 0.708898 0.170654
vt 0.902918 0.170654
vt 0.902918 0.219159
vt 0.854413 0.219159
vt 0.854413 0.170654
vt 0.320857 0.461684
vt 0.320857 0.510190
vt 0.272352 0.510190
vt 0.272352 0.461684
vt 0.611887 0.461685
vt 0.611887 0.510190
vt 0.563382 0.510190
vt 0.563382 0.461684
vt 0.611887 0.316169
vt 0.611887 0.364674
vt 0.563382 0.364674
vt 0.563382 0.316169
vt 0.466372 0.316169
vt 0.466372 0.364674
vt 0.417867 0.364674
vt 0.417867 0.316169
vt 0.902918 0.461685
vt 0.902918 0.510190
vt 0.854413 0.510190
vt 0.854413 0.461685
vt 0.902918 0.316169
vt 0.902918 0.364675
vt 0.854413 0.364675
vt 0.854413 0.316169
vt 0.757403 0.316169
vt 0.757403 0.364675
vt 0.708898 0.364675
vt 0.708898 0.316169
vt 0.805908 0.364675
vt 0.805908 0.316169
vt 0.854413 0.267664
vt 0.805908 0.267664
vt 0.805908 0.219159
vt 0.757403 0.267664
vt 0.708898 0.267664
vt 0.999929 0.316169
vt 0.999929 0.364675
vt 0.951423 0.364675
vt 0.951423 0.316170
vt 0.999929 0.219159
vt 0.999929 0.267664
vt 0.951423 0.267664
vt 0.951423 0.219159
vt 0.902918 0.267664
vt 0.999929 0.461685
vt 0.999928 0.510190
vt 0.951423 0.510190
vt 0.951423 0.461685
vt 0.999929 0.413180
vt 0.951423 0.413180
vt 0.902918 0.413180
vt 0.854413 0.413180
vt 0.514877 0.364674
vt 0.514877 0.316169
vt 0.563382 0.267664
vt 0.514877 0.267664
vt 0.466372 0.272444
vt 0.475747 0.267664
vt 0.660393 0.364674
vt 0.660393 0.316169
vt 0.660393 0.267664
vt 0.660393 0.219159
vt 0.611888 0.267664
vt 0.611888 0.219159
vt 0.563382 0.222983
vt 0.570882 0.219159
vt 0.660392 0.510190
vt 0.660392 0.461685
vt 0.708898 0.413180
vt 0.660392 0.413180
vt 0.611887 0.413179
vt 0.563382 0.413179
vt 0.369362 0.364674
vt 0.369362 0.321905
vt 0.380612 0.316169
vt 0.369361 0.510190
vt 0.369361 0.461684
vt 0.417867 0.413179
vt 0.369362 0.413179
vt 0.320857 0.413179
vt 0.320857 0.364674
vt 0.272352 0.413179
vt 0.272352 0.371366
vt 0.285477 0.364674
vt 0.078331 0.510189
vt 0.078331 0.470288
vt 0.095207 0.461684
vt 0.999929 0.025139
vt 0.999929 0.073644
vt 0.951423 0.073644
vt 0.951423 0.025138
vt 0.902918 0.073644
vt 0.902918 0.049869
vt 0.999929 0.170654
vt 0.951423 0.170654
vt 0.999929 0.122149
vt 0.951423 0.122149
vt 0.902918 0.122149
vt 0.854413 0.122149
vt 0.854413 0.073644
vt 0.660393 0.173522
vt 0.666017 0.170654
vt 0.805908 0.170654
vt 0.805908 0.122149
vt 0.805908 0.099330
vt 0.761153 0.122149
vt 0.223846 0.510190
vt 0.223847 0.461684
vt 0.223847 0.413179
vt 0.175341 0.420827
vt 0.190342 0.413179
vt 0.514877 0.510190
vt 0.514877 0.461684
vt 0.514877 0.413179
vt 0.466372 0.413179
vt 0.805908 0.510190
vt 0.805908 0.461685
vt 0.805908 0.413180
vt 0.757403 0.413180
vt 0.514877 0.247714
vt 0.029826 0.510189
vt 0.029826 0.495019
vt 0.000071 0.510189
vt 0.417867 0.297175
vt 0.223846 0.396097
vt 0.708898 0.148791
vt 0.611888 0.198252
vt 0.320857 0.346636
vt 0.126836 0.445558
vt 0.999929 0.000071
vn 0.0000 -1.0000 -0.0000
usemtl TD_Checker
s 1
f 1/1/1 4/2/1 3/3/1 2/4/1
f 5/5/1 8/6/1 7/7/1 6/8/1
f 9/9/1 12/10/1 11/11/1 10/12/1
f 13/13/1 16/14/1 15/15/1 14/16/1
f 19/17/1 22/18/1 21/19/1 20/20/1
f 26/21/1 29/22/1 28/23/1 27/24/1
f 32/25/1 35/26/1 34/27/1 33/28/1
f 36/29/1 39/30/1 38/31/1 37/32/1
f 40/33/1 43/34/1 42/35/1 41/36/1
f 44/37/1 47/38/1 46/39/1 45/40/1
f 48/41/1 51/42/1 50/43/1 49/44/1
f 52/45/1 55/46/1 54/47/1 53/48/1
f 49/44/1 50/43/1 57/49/1 56/50/1
f 56/50/1 57/49/1 55/46/1 52/45/1
f 21/19/1 60/51/1 59/52/1 58/53/1
f 60/51/1 49/44/1 56/50/1 59/52/1
f 58/53/1 59/52/1 61/54/1 16/14/1
f 59/52/1 56/50/1 52/45/1 61/54/1
f 16/14/1 61/54/1 62/55/1 15/15/1
f 61/54/1 52/45/1 53/48/1 62/55/1
f 63/56/1 66/57/1 65/58/1 64/59/1
f 64/59/1 65/58/1 51/42/1 48/41/1
f 67/60/1 70/61/1 69/62/1 68/63/1
f 70/61/1 63/56/1 64/59/1 69/62/1
f 68/63/1 69/62/1 71/64/1 22/18/1
f 69/62/1 64/59/1 48/41/1 71/64/1
f 22/18/1 71/64/1 60/51/1 21/19/1
f 71/64/1 48/41/1 49/44/1 60/51/1
f 72/65/1 75/66/1 74/67/1 73/68/1
f 73/68/1 74/67/1 47/38/1 44/37/1
f 66/57/1 77/69/1 76/70/1 65/58/1
f 77/69/1 72/65/1 73/68/1 76/70/1
f 65/58/1 76/70/1 78/71/1 51/42/1
f 76/70/1 73/68/1 44/37/1 78/71/1
f 51/42/1 78/71/1 79/72/1 50/43/1
f 78/71/1 44/37/1 45/40/1 79/72/1
f 37/32/1 38/31/1 81/73/1 80/74/1
f 80/74/1 81/73/1 43/34/1 40/33/1
f 83/75/1 37/32/1 80/74/1 82/76/1
f 82/76/1 80/74/1 40/33/1 84/77/1 138/78/1
f 53/48/1 54/47/1 86/79/1 85/80/1
f 85/80/1 86/79/1 39/30/1 36/29/1
f 15/15/1 62/55/1 88/81/1 87/82/1
f 62/55/1 53/48/1 85/80/1 88/81/1
f 87/82/1 88/81/1 89/83/1 18/84/1
f 88/81/1 85/80/1 36/29/1 89/83/1
f 18/84/1 89/83/1 83/75/1 17/85/1 132/86/1
f 89/83/1 36/29/1 37/32/1 83/75/1
f 2/4/1 3/3/1 91/87/1 90/88/1
f 90/88/1 91/87/1 35/26/1 32/25/1
f 54/47/1 93/89/1 92/90/1 86/79/1
f 93/89/1 2/4/1 90/88/1 92/90/1
f 86/79/1 92/90/1 94/91/1 39/30/1
f 92/90/1 90/88/1 32/25/1 94/91/1
f 39/30/1 94/91/1 95/92/1 38/31/1
f 94/91/1 32/25/1 33/28/1 95/92/1
f 41/36/1 42/35/1 97/93/1 96/94/1 133/95/1
f 6/8/1 7/7/1 99/96/1 98/97/1
f 98/97/1 99/96/1 29/22/1 26/21/1
f 42/35/1 101/98/1 100/99/1 97/93/1
f 101/98/1 6/8/1 98/97/1 100/99/1
f 97/93/1 100/99/1 102/100/1 31/101/1
f 100/99/1 98/97/1 26/21/1 102/100/1
f 31/101/1 102/100/1 103/102/1 30/103/1 140/104/1
f 102/100/1 26/21/1 27/24/1 103/102/1
f 10/12/1 11/11/1 105/105/1 104/106/1 131/107/1
f 106/108/1 109/109/1 108/110/1 107/111/1
f 107/111/1 108/110/1 24/112/1 141/113/1
f 110/114/1 67/60/1 68/63/1 111/115/1
f 111/115/1 68/63/1 22/18/1 19/17/1
f 109/109/1 113/116/1 112/117/1 108/110/1
f 113/116/1 110/114/1 111/115/1 112/117/1
f 108/110/1 112/117/1 114/118/1 24/112/1
f 112/117/1 111/115/1 19/17/1 114/118/1
f 24/112/1 114/118/1 115/119/1 23/120/1
f 114/118/1 19/17/1 20/20/1 115/119/1
f 14/16/1 15/15/1 87/82/1 116/121/1 147/122/1
f 20/20/1 21/19/1 58/53/1 117/123/1
f 117/123/1 58/53/1 16/14/1 13/13/1
f 23/120/1 115/119/1 118/124/1 145/125/1
f 115/119/1 20/20/1 117/123/1 118/124/1
f 118/124/1 117/123/1 13/13/1 137/126/1
f 27/24/1 28/23/1 120/127/1 119/128/1
f 119/128/1 120/127/1 12/10/1 9/9/1
f 103/102/1 27/24/1 119/128/1 121/129/1
f 121/129/1 119/128/1 9/9/1 122/130/1 150/131/1
f 33/28/1 34/27/1 124/132/1 123/133/1
f 123/133/1 124/132/1 8/6/1 5/5/1
f 38/31/1 95/92/1 125/134/1 81/73/1
f 95/92/1 33/28/1 123/133/1 125/134/1
f 81/73/1 125/134/1 126/135/1 43/34/1
f 125/134/1 123/133/1 5/5/1 126/135/1
f 43/34/1 126/135/1 101/98/1 42/35/1
f 126/135/1 5/5/1 6/8/1 101/98/1
f 45/40/1 46/39/1 128/136/1 127/137/1
f 127/137/1 128/136/1 4/2/1 1/1/1
f 50/43/1 79/72/1 129/138/1 57/49/1
f 79/72/1 45/40/1 127/137/1 129/138/1
f 57/49/1 129/138/1 130/139/1 55/46/1
f 129/138/1 127/137/1 1/1/1 130/139/1
f 55/46/1 130/139/1 93/89/1 54/47/1
f 130/139/1 1/1/1 2/4/1 93/89/1
f 17/85/1 83/75/1 82/76/1 144/140/1
f 104/106/1 105/105/1 25/141/1 149/142/1
f 141/113/1 24/112/1 23/120/1
f 149/142/1 25/141/1 134/143/1
f 145/125/1 118/124/1 137/126/1
f 84/77/1 40/33/1 41/36/1 146/144/1
f 143/145/1 121/129/1 150/131/1
f 136/146/1 14/16/1 147/122/1
f 135/147/1 18/84/1 132/86/1
f 30/103/1 103/102/1 121/129/1 143/145/1
f 139/148/1 31/101/1 140/104/1
f 116/121/1 87/82/1 18/84/1 135/147/1
f 137/126/1 13/13/1 14/16/1 136/146/1
f 144/140/1 82/76/1 138/78/1
f 142/149/1 10/12/1 131/107/1
f 122/130/1 9/9/1 10/12/1 142/149/1
f 146/144/1 41/36/1 133/95/1
f 148/150/1 106/108/1 107/111/1
f 96/94/1 97/93/1 31/101/1 139/148/1
